<svg width="100" height="100" viewBox="0 0 100 100" fill="none" xmlns="http://www.w3.org/2000/svg">
<path fill-rule="evenodd" clip-rule="evenodd" d="M1 50.5C1 57.1598 2.31494 63.5113 4.69891 69.3099L3.77403 69.6901C1.34133 63.773 5.93822e-07 57.2925 0 50.5C-2.43825e-06 22.6096 22.6096 2.43825e-06 50.5 0C61.5169 -9.63133e-07 71.7112 3.5284 80.0125 9.51665C81.0725 8.57319 82.4694 8 84 8C87.3138 8 90 10.6863 90 14C90 17.3137 87.3138 20 84 20C80.6863 20 78 17.3137 78 14C78 12.5803 78.4931 11.2758 79.3173 10.2484C71.2007 4.42701 61.2512 0.999999 50.5 1C23.1619 1 0.999998 23.1619 1 50.5ZM84 19C86.7615 19 89 16.7614 89 14C89 11.2386 86.7615 9 84 9C81.2386 9 79 11.2386 79 14C79 16.7614 81.2386 19 84 19Z" fill="#1F993F"/>
<path fill-rule="evenodd" clip-rule="evenodd" d="M99.0001 49.5001C99.0001 42.8403 97.6852 36.4888 95.3012 30.6902L96.2261 30.31C98.6588 36.2271 100 42.7076 100 49.5001C100 77.3905 77.3905 100 49.5001 100C38.4832 100 28.2889 96.4717 19.9876 90.4835C18.9276 91.4269 17.5308 92.0001 16.0001 92.0001C12.6863 92.0001 10.0001 89.3138 10.0001 86.0001C10.0001 82.6864 12.6863 80.0001 16.0001 80.0001C19.3138 80.0001 22.0001 82.6864 22.0001 86.0001C22.0001 87.4198 21.507 88.7243 20.6828 89.7517C28.7994 95.5731 38.7489 99.0001 49.5001 99.0001C76.8382 99.0001 99.0001 76.8382 99.0001 49.5001ZM16.0001 81.0001C13.2386 81.0001 11.0001 83.2387 11.0001 86.0001C11.0001 88.7616 13.2386 91.0001 16.0001 91.0001C18.7615 91.0001 21.0001 88.7616 21.0001 86.0001C21.0001 83.2387 18.7615 81.0001 16.0001 81.0001Z" fill="#1F993F"/>
<path d="M63.5781 41.1104C62.3125 39.6339 59.2188 36.7511 54.9297 36.0479C53.3125 35.837 51.7656 36.3292 50.4297 37.3839C49.2344 36.3995 47.6172 35.9073 46 36.1183C40.375 37.0323 36.8594 41.7433 36.7188 41.9542C36.1562 42.6573 36.3672 43.712 37.0703 44.2745C37.4219 44.4854 37.7734 44.6261 38.0547 44.6261C38.6172 44.6261 39.1094 44.3448 39.4609 43.9229C39.4609 43.8526 42.2734 40.1261 46.4922 39.4933C47.0547 39.4229 47.5469 39.4933 48.0391 39.7745L43.9609 43.9933C43.0469 44.837 42.5547 45.962 42.5547 47.2276C42.5547 48.4229 42.9766 49.6183 43.8906 50.462C44.8047 51.3761 45.9297 51.7979 47.1953 51.7979C48.3906 51.7979 49.5859 51.3058 50.4297 50.3917L51.2734 49.6183L59.9922 56.7198C60.1328 56.8604 60.1328 57.0714 59.9922 57.2823L58.0938 59.8136C57.9531 59.9542 57.6719 59.9542 57.5312 59.8839L55.9844 58.5479L54.1562 60.5167C54.0156 60.7276 53.8047 60.7276 53.6641 60.7979C53.5234 60.7979 53.3828 60.7979 53.1719 60.6573L50.9219 58.6886L49.7969 59.7433L49.5859 59.9542C49.2344 60.4464 48.6016 60.7276 47.9688 60.7979C47.3359 60.8683 46.7031 60.7276 46.2812 60.3761L39.9531 54.6104H34.75V41.1808H28V59.1104H32.5C33.2734 59.1104 33.9766 58.6886 34.3984 57.9854H38.6172L44.0312 62.9073C45.0859 63.7511 46.3516 64.1729 47.6875 64.1729C47.8984 64.1729 48.1094 64.1729 48.3203 64.1729C49.3047 64.1026 50.1484 63.7511 50.9219 63.2589H50.9922C51.8359 63.962 52.9609 64.3136 54.0156 64.1729C54.9297 64.1026 55.7734 63.6808 56.4062 63.1183C57.8828 63.6808 59.6406 63.2589 60.6953 61.9229L62.6641 59.462C63.9297 57.8448 63.7188 55.4542 62.1016 54.1886L53.6641 47.2979L54.2266 46.6651C54.8594 46.0323 54.8594 44.9776 54.2266 44.2745C53.5938 43.6417 52.5391 43.6417 51.8359 44.2745L48.0391 48.0714C47.6172 48.5636 46.7734 48.5636 46.3516 48.0714C46.0703 47.8604 45.9297 47.5792 45.9297 47.2276C45.9297 46.8761 46.0703 46.5948 46.3516 46.3136L52.3984 40.1964C52.8906 39.6339 53.6641 39.3526 54.4375 39.4933C58.5859 40.1261 61.4688 43.9229 61.4688 43.9229C61.6797 44.2042 61.9609 44.4151 62.3125 44.4854H66.25V56.8604C66.25 58.0558 67.2344 59.1104 68.4297 59.1104H73V41.1808L63.5781 41.1104ZM31.375 56.8604C30.7422 56.8604 30.25 56.3683 30.25 55.8058C30.25 55.1729 30.7422 54.6808 31.375 54.6808C31.9375 54.6808 32.5 55.1729 32.5 55.8058C32.5 56.3683 31.9375 56.8604 31.375 56.8604ZM69.625 56.8604C68.9922 56.8604 68.5 56.3683 68.5 55.8058C68.5 55.1729 68.9922 54.6808 69.625 54.6808C70.1875 54.6808 70.75 55.1729 70.75 55.8058C70.75 56.3683 70.1875 56.8604 69.625 56.8604Z" fill="#1F993F"/>
</svg>
