<svg width="100" height="100" viewBox="0 0 100 100" fill="none" xmlns="http://www.w3.org/2000/svg">
<path fill-rule="evenodd" clip-rule="evenodd" d="M1 50.5001C1 57.16 2.31494 63.5114 4.69891 69.31L3.77403 69.6903C1.34133 63.7732 5.93822e-07 57.2927 0 50.5001C-2.43825e-06 22.6097 22.6096 0.000124509 50.5 0.00012207C61.5169 0.000121107 71.7112 3.52852 80.0125 9.51677C81.0725 8.57332 82.4694 8.00012 84 8.00012C87.3138 8.00012 90 10.6864 90 14.0001C90 17.3138 87.3138 20.0001 84 20.0001C80.6863 20.0001 78 17.3138 78 14.0001C78 12.5805 78.4931 11.276 79.3173 10.2485C71.2007 4.42713 61.2512 1.00012 50.5 1.00012C23.1619 1.00012 0.999998 23.162 1 50.5001ZM84 19.0001C86.7615 19.0001 89 16.7615 89 14.0001C89 11.2387 86.7615 9.00012 84 9.00012C81.2386 9.00012 79 11.2387 79 14.0001C79 16.7615 81.2386 19.0001 84 19.0001Z" fill="#1F993F"/>
<path fill-rule="evenodd" clip-rule="evenodd" d="M99.0001 49.5002C99.0001 42.8404 97.6852 36.4889 95.3012 30.6904L96.2261 30.3101C98.6588 36.2272 100 42.7077 100 49.5002C100 77.3906 77.3905 100 49.5001 100C38.4832 100 28.2889 96.4718 19.9876 90.4836C18.9276 91.427 17.5308 92.0002 16.0001 92.0002C12.6863 92.0002 10.0001 89.3139 10.0001 86.0002C10.0001 82.6865 12.6863 80.0002 16.0001 80.0002C19.3138 80.0002 22.0001 82.6865 22.0001 86.0002C22.0001 87.4199 21.507 88.7244 20.6828 89.7518C28.7994 95.5732 38.7489 99.0002 49.5001 99.0002C76.8382 99.0002 99.0001 76.8383 99.0001 49.5002ZM16.0001 81.0002C13.2386 81.0002 11.0001 83.2388 11.0001 86.0002C11.0001 88.7617 13.2386 91.0002 16.0001 91.0002C18.7615 91.0002 21.0001 88.7617 21.0001 86.0002C21.0001 83.2388 18.7615 81.0002 16.0001 81.0002Z" fill="#1F993F"/>
<path d="M32 61.2501C32 51.3361 38.2578 45.0782 42.5469 41.8439C43.3203 41.3517 43.9531 40.8595 44.5859 40.5079L40.5078 34.672C39.7344 33.547 40.5781 32.0001 41.9141 32.0001H58.0156C59.3516 32.0001 60.1953 33.547 59.4219 34.672L55.3438 40.5079C55.9766 40.8595 56.6094 41.3517 57.3828 41.8439C61.6719 45.0782 68 51.3361 68 61.2501C68 64.9767 64.9766 68.0001 61.25 68.0001H38.75C34.9531 68.0001 32 64.9767 32 61.2501ZM52.6016 42.6876H47.3281L46.3438 43.3204C42.5469 45.7814 35.375 51.4767 35.375 61.2501C35.375 63.1486 36.8516 64.6251 38.75 64.6251H61.25C63.0781 64.6251 64.625 63.1486 64.625 61.2501C64.625 51.4767 57.3828 45.7814 53.5859 43.3204L52.6016 42.6876ZM54.7812 35.3751H45.1484L47.8906 39.3126H52.0391L54.7812 35.3751Z" fill="#1F993F"/>
</svg>
