<svg width="100" height="100" viewBox="0 0 100 100" fill="none" xmlns="http://www.w3.org/2000/svg">
<path fill-rule="evenodd" clip-rule="evenodd" d="M1 50.5001C1 57.16 2.31494 63.5114 4.69891 69.31L3.77403 69.6903C1.34133 63.7732 5.93822e-07 57.2927 0 50.5001C-2.43825e-06 22.6097 22.6096 0.000124509 50.5 0.00012207C61.5169 0.000121107 71.7112 3.52852 80.0125 9.51677C81.0725 8.57332 82.4694 8.00012 84 8.00012C87.3138 8.00012 90 10.6864 90 14.0001C90 17.3138 87.3138 20.0001 84 20.0001C80.6863 20.0001 78 17.3138 78 14.0001C78 12.5805 78.4931 11.276 79.3173 10.2485C71.2007 4.42713 61.2512 1.00012 50.5 1.00012C23.1619 1.00012 0.999998 23.162 1 50.5001ZM84 19.0001C86.7615 19.0001 89 16.7615 89 14.0001C89 11.2387 86.7615 9.00012 84 9.00012C81.2386 9.00012 79 11.2387 79 14.0001C79 16.7615 81.2386 19.0001 84 19.0001Z" fill="#1F993F"/>
<path fill-rule="evenodd" clip-rule="evenodd" d="M99.0001 49.5002C99.0001 42.8404 97.6852 36.4889 95.3012 30.6904L96.2261 30.3101C98.6588 36.2272 100 42.7077 100 49.5002C100 77.3906 77.3905 100 49.5001 100C38.4832 100 28.2889 96.4718 19.9876 90.4836C18.9276 91.427 17.5308 92.0002 16.0001 92.0002C12.6863 92.0002 10.0001 89.3139 10.0001 86.0002C10.0001 82.6865 12.6863 80.0002 16.0001 80.0002C19.3138 80.0002 22.0001 82.6865 22.0001 86.0002C22.0001 87.4199 21.507 88.7244 20.6828 89.7518C28.7994 95.5732 38.7489 99.0002 49.5001 99.0002C76.8382 99.0002 99.0001 76.8383 99.0001 49.5002ZM16.0001 81.0002C13.2386 81.0002 11.0001 83.2388 11.0001 86.0002C11.0001 88.7617 13.2386 91.0002 16.0001 91.0002C18.7615 91.0002 21.0001 88.7617 21.0001 86.0002C21.0001 83.2388 18.7615 81.0002 16.0001 81.0002Z" fill="#1F993F"/>
<path d="M65.5 56.7501V35.3751C65.5 33.547 63.9531 32.0001 62.125 32.0001H39.625C36.4609 32.0001 34 34.5314 34 37.6251V62.3751C34 65.5392 36.4609 68.0001 39.625 68.0001H63.8125C64.7266 68.0001 65.5 67.297 65.5 66.3126C65.5 65.3986 64.7266 64.6251 63.8125 64.6251H63.25V59.9845C64.5156 59.4923 65.5 58.2267 65.5 56.7501ZM59.875 64.6251H39.625C38.3594 64.6251 37.375 63.6407 37.375 62.3751C37.375 61.1798 38.3594 60.1251 39.625 60.1251H59.875V64.6251ZM62.125 56.7501H58.75V55.6251C58.75 52.5314 56.2188 50.0001 53.125 50.0001H48.625C45.4609 50.0001 43 52.5314 43 55.6251V56.7501H39.625C38.7812 56.7501 38.0078 56.9611 37.375 57.2423V37.6251C37.375 36.4298 38.3594 35.3751 39.625 35.3751H62.125V56.7501ZM50.875 47.7501C53.3359 47.7501 55.375 45.7814 55.375 43.2501C55.375 40.7892 53.3359 38.7501 50.875 38.7501C48.3438 38.7501 46.375 40.7892 46.375 43.2501C46.375 45.7814 48.3438 47.7501 50.875 47.7501Z" fill="#1F993F"/>
</svg>
