<svg width="100" height="100" viewBox="0 0 100 100" fill="none" xmlns="http://www.w3.org/2000/svg">
<path fill-rule="evenodd" clip-rule="evenodd" d="M1 50.5C1 57.1598 2.31494 63.5113 4.69891 69.3099L3.77403 69.6901C1.34133 63.773 5.93822e-07 57.2925 0 50.5C-2.43825e-06 22.6096 22.6096 2.43825e-06 50.5 0C61.5169 -9.63133e-07 71.7112 3.5284 80.0125 9.51665C81.0725 8.57319 82.4694 8 84 8C87.3138 8 90 10.6863 90 14C90 17.3137 87.3138 20 84 20C80.6863 20 78 17.3137 78 14C78 12.5803 78.4931 11.2758 79.3173 10.2484C71.2007 4.42701 61.2512 0.999999 50.5 1C23.1619 1 0.999998 23.1619 1 50.5ZM84 19C86.7615 19 89 16.7614 89 14C89 11.2386 86.7615 9 84 9C81.2386 9 79 11.2386 79 14C79 16.7614 81.2386 19 84 19Z" fill="#1F993F"/>
<path fill-rule="evenodd" clip-rule="evenodd" d="M99.0001 49.5001C99.0001 42.8403 97.6852 36.4888 95.3012 30.6902L96.2261 30.31C98.6588 36.2271 100 42.7076 100 49.5001C100 77.3905 77.3905 100 49.5001 100C38.4832 100 28.2889 96.4717 19.9876 90.4835C18.9276 91.4269 17.5308 92.0001 16.0001 92.0001C12.6863 92.0001 10.0001 89.3138 10.0001 86.0001C10.0001 82.6864 12.6863 80.0001 16.0001 80.0001C19.3138 80.0001 22.0001 82.6864 22.0001 86.0001C22.0001 87.4198 21.507 88.7243 20.6828 89.7517C28.7994 95.5731 38.7489 99.0001 49.5001 99.0001C76.8382 99.0001 99.0001 76.8382 99.0001 49.5001ZM16.0001 81.0001C13.2386 81.0001 11.0001 83.2387 11.0001 86.0001C11.0001 88.7616 13.2386 91.0001 16.0001 91.0001C18.7615 91.0001 21.0001 88.7616 21.0001 86.0001C21.0001 83.2387 18.7615 81.0001 16.0001 81.0001Z" fill="#1F993F"/>
<path d="M71.5238 57.1719L68.9926 54.2891C69.4848 53.9375 69.9066 53.5156 70.1176 52.9531C70.7504 51.6875 70.5394 50.2109 69.6254 49.1562L67.4457 46.625C67.7269 46.3438 68.0082 45.9219 68.2191 45.5703C68.7113 44.4453 68.5004 43.1797 67.6566 42.2656L59.1488 33.125C58.5863 32.4219 57.6723 32 56.7582 32C55.7738 32 54.8598 32.4219 54.2973 33.125L51.4848 36.0781L53.8051 38.5391L56.6879 35.375L64.7035 44.0938H60.8363L66.8832 51.6172H62.2426L68.9926 59.4219C69.1332 59.6328 69.0629 59.8438 69.0629 59.9141C68.9926 60.0547 68.8519 60.125 68.7113 60.125H58.9379C59.0785 59.0703 58.7269 58.0156 58.0238 57.1719L55.4926 54.2891C55.9848 53.9375 56.4066 53.5156 56.6176 52.9531C57.1801 51.6875 57.0394 50.2109 56.1254 49.1562L53.9457 46.625C54.2269 46.3438 54.5082 45.9219 54.7191 45.5703C55.2113 44.4453 55.0004 43.1797 54.1566 42.2656L45.6488 33.125C45.0863 32.4219 44.1723 32 43.2582 32C42.2738 32 41.3598 32.4219 40.7973 33.125L32.2894 42.2656C31.516 43.1797 31.2348 44.4453 31.7269 45.5703C31.9379 45.9219 32.2191 46.3438 32.5004 46.625L30.3207 49.1562C29.4066 50.2109 29.266 51.6875 29.8285 52.9531C30.1098 53.5156 30.4613 53.9375 30.9535 54.2891L28.4223 57.1719C27.4379 58.3672 27.2269 59.9141 27.8598 61.3203C28.4223 62.6562 29.7582 63.5 31.2348 63.5H41.5707V66.3828C41.5707 67.2969 42.3441 68 43.2582 68C44.1723 68 44.9457 67.2969 44.9457 66.3125V63.5H55.0707V66.3828C55.0707 67.2969 55.8441 68 56.7582 68C57.6723 68 58.4457 67.2969 58.4457 66.3125V63.5H68.7113C70.1879 63.5 71.5238 62.6562 72.0863 61.3203C72.7191 59.9141 72.5082 58.3672 71.5238 57.1719ZM44.9457 60.125V58.5781L47.7582 55.6953C48.4613 55.0625 48.4613 54.0078 47.7582 53.375C47.1254 52.6719 46.0707 52.6719 45.4379 53.375L44.9457 53.7969L44.8754 44.9375C44.8754 44.0234 44.1723 43.25 43.1879 43.25C42.2738 43.25 41.5004 44.0234 41.5707 44.9375V48.2422L41.0082 47.6797C40.3051 47.0469 39.2504 47.0469 38.6176 47.6797C37.9144 48.3828 37.9144 49.4375 38.6176 50.0703L41.5004 53.0234L41.5707 60.125H31.2348C31.0941 60.125 30.9535 60.0547 30.8832 59.9141C30.8832 59.8438 30.8129 59.6328 30.9535 59.4219L37.7035 51.6172H33.0629L39.1098 44.0938H35.2426L43.1879 35.375L51.2035 44.0938H47.3363L53.3832 51.6172H48.7426L55.4926 59.4219C55.6332 59.6328 55.5629 59.8438 55.5629 59.9141C55.4926 60.0547 55.3519 60.125 55.2113 60.125H44.9457Z" fill="#1F993F"/>
</svg>
