<svg width="100" height="100" viewBox="0 0 100 100" fill="none" xmlns="http://www.w3.org/2000/svg">
<path fill-rule="evenodd" clip-rule="evenodd" d="M1 50.5C1 57.1598 2.31494 63.5113 4.69891 69.3099L3.77403 69.6901C1.34133 63.773 5.93822e-07 57.2925 0 50.5C-2.43825e-06 22.6096 22.6096 2.43825e-06 50.5 0C61.5169 -9.63133e-07 71.7112 3.5284 80.0125 9.51665C81.0725 8.57319 82.4694 8 84 8C87.3138 8 90 10.6863 90 14C90 17.3137 87.3138 20 84 20C80.6863 20 78 17.3137 78 14C78 12.5803 78.4931 11.2758 79.3173 10.2484C71.2007 4.42701 61.2512 0.999999 50.5 1C23.1619 1 0.999998 23.1619 1 50.5ZM84 19C86.7615 19 89 16.7614 89 14C89 11.2386 86.7615 9 84 9C81.2386 9 79 11.2386 79 14C79 16.7614 81.2386 19 84 19Z" fill="#1F993F"/>
<path fill-rule="evenodd" clip-rule="evenodd" d="M99.0001 49.5001C99.0001 42.8403 97.6852 36.4888 95.3012 30.6902L96.2261 30.31C98.6588 36.2271 100 42.7076 100 49.5001C100 77.3905 77.3905 100 49.5001 100C38.4832 100 28.2889 96.4717 19.9876 90.4835C18.9276 91.4269 17.5308 92.0001 16.0001 92.0001C12.6863 92.0001 10.0001 89.3138 10.0001 86.0001C10.0001 82.6864 12.6863 80.0001 16.0001 80.0001C19.3138 80.0001 22.0001 82.6864 22.0001 86.0001C22.0001 87.4198 21.507 88.7243 20.6828 89.7517C28.7994 95.5731 38.7489 99.0001 49.5001 99.0001C76.8382 99.0001 99.0001 76.8382 99.0001 49.5001ZM16.0001 81.0001C13.2386 81.0001 11.0001 83.2387 11.0001 86.0001C11.0001 88.7616 13.2386 91.0001 16.0001 91.0001C18.7615 91.0001 21.0001 88.7616 21.0001 86.0001C21.0001 83.2387 18.7615 81.0001 16.0001 81.0001Z" fill="#1F993F"/>
<path d="M40.7227 32H50.8477C51.7617 32 52.5352 32.7734 52.5352 33.6875V43.8125C52.5352 44.7969 51.7617 45.5 50.8477 45.5C49.8633 45.5 49.1602 44.7969 49.1602 43.8125V37.7656L32.8477 54.0078C32.2148 54.7109 31.1602 54.7109 30.5273 54.0078C29.8242 53.375 29.8242 52.3203 30.5273 51.6172L46.7695 35.375H40.7227C39.7383 35.375 39.0352 34.6719 39.0352 33.6875C39.0352 32.7734 39.7383 32 40.7227 32ZM70.5352 37.625C70.5352 39.5234 68.9883 41 67.1602 41C65.2617 41 63.7852 39.5234 63.7852 37.625C63.7852 35.7969 65.2617 34.25 67.1602 34.25C68.9883 34.25 70.5352 35.7969 70.5352 37.625ZM61.5352 46.625C61.5352 48.5234 59.9883 50 58.1602 50C56.2617 50 54.7852 48.5234 54.7852 46.625C54.7852 44.7969 56.2617 43.25 58.1602 43.25C59.9883 43.25 61.5352 44.7969 61.5352 46.625ZM54.7852 55.625C54.7852 53.7969 56.2617 52.25 58.1602 52.25C59.9883 52.25 61.5352 53.7969 61.5352 55.625C61.5352 57.5234 59.9883 59 58.1602 59C56.2617 59 54.7852 57.5234 54.7852 55.625ZM61.5352 64.625C61.5352 66.5234 59.9883 68 58.1602 68C56.2617 68 54.7852 66.5234 54.7852 64.625C54.7852 62.7969 56.2617 61.25 58.1602 61.25C59.9883 61.25 61.5352 62.7969 61.5352 64.625ZM70.5352 64.625C70.5352 66.5234 68.9883 68 67.1602 68C65.2617 68 63.7852 66.5234 63.7852 64.625C63.7852 62.7969 65.2617 61.25 67.1602 61.25C68.9883 61.25 70.5352 62.7969 70.5352 64.625ZM45.7852 55.625C45.7852 53.7969 47.2617 52.25 49.1602 52.25C50.9883 52.25 52.5352 53.7969 52.5352 55.625C52.5352 57.5234 50.9883 59 49.1602 59C47.2617 59 45.7852 57.5234 45.7852 55.625ZM52.5352 64.625C52.5352 66.5234 50.9883 68 49.1602 68C47.2617 68 45.7852 66.5234 45.7852 64.625C45.7852 62.7969 47.2617 61.25 49.1602 61.25C50.9883 61.25 52.5352 62.7969 52.5352 64.625ZM36.7852 64.625C36.7852 62.7969 38.2617 61.25 40.1602 61.25C41.9883 61.25 43.5352 62.7969 43.5352 64.625C43.5352 66.5234 41.9883 68 40.1602 68C38.2617 68 36.7852 66.5234 36.7852 64.625ZM70.5352 55.625C70.5352 57.5234 68.9883 59 67.1602 59C65.2617 59 63.7852 57.5234 63.7852 55.625C63.7852 53.7969 65.2617 52.25 67.1602 52.25C68.9883 52.25 70.5352 53.7969 70.5352 55.625ZM63.7852 46.625C63.7852 44.7969 65.2617 43.25 67.1602 43.25C68.9883 43.25 70.5352 44.7969 70.5352 46.625C70.5352 48.5234 68.9883 50 67.1602 50C65.2617 50 63.7852 48.5234 63.7852 46.625Z" fill="#1F993F"/>
</svg>
