<svg width="100" height="100" viewBox="0 0 100 100" fill="none" xmlns="http://www.w3.org/2000/svg">
<path fill-rule="evenodd" clip-rule="evenodd" d="M1 50.5C1 57.1598 2.31494 63.5113 4.69891 69.3099L3.77403 69.6901C1.34133 63.773 5.93822e-07 57.2925 0 50.5C-2.43825e-06 22.6096 22.6096 2.43825e-06 50.5 0C61.5169 -9.63133e-07 71.7112 3.5284 80.0125 9.51665C81.0725 8.57319 82.4694 8 84 8C87.3138 8 90 10.6863 90 14C90 17.3137 87.3138 20 84 20C80.6863 20 78 17.3137 78 14C78 12.5803 78.4931 11.2758 79.3173 10.2484C71.2007 4.42701 61.2512 0.999999 50.5 1C23.1619 1 0.999998 23.1619 1 50.5ZM84 19C86.7615 19 89 16.7614 89 14C89 11.2386 86.7615 9 84 9C81.2386 9 79 11.2386 79 14C79 16.7614 81.2386 19 84 19Z" fill="#1F993F"/>
<path fill-rule="evenodd" clip-rule="evenodd" d="M99.0001 49.5001C99.0001 42.8403 97.6852 36.4888 95.3012 30.6902L96.2261 30.31C98.6588 36.2271 100 42.7076 100 49.5001C100 77.3905 77.3905 100 49.5001 100C38.4832 100 28.2889 96.4717 19.9876 90.4835C18.9276 91.4269 17.5308 92.0001 16.0001 92.0001C12.6863 92.0001 10.0001 89.3138 10.0001 86.0001C10.0001 82.6864 12.6863 80.0001 16.0001 80.0001C19.3138 80.0001 22.0001 82.6864 22.0001 86.0001C22.0001 87.4198 21.507 88.7243 20.6828 89.7517C28.7994 95.5731 38.7489 99.0001 49.5001 99.0001C76.8382 99.0001 99.0001 76.8382 99.0001 49.5001ZM16.0001 81.0001C13.2386 81.0001 11.0001 83.2387 11.0001 86.0001C11.0001 88.7616 13.2386 91.0001 16.0001 91.0001C18.7615 91.0001 21.0001 88.7616 21.0001 86.0001C21.0001 83.2387 18.7615 81.0001 16.0001 81.0001Z" fill="#1F993F"/>
<path d="M65.6797 50C66.875 50 67.8594 49.0156 67.8594 47.75V45.5C67.8594 41.4219 65.2578 38.1172 61.6719 37.2734V35.375C61.6719 34.4609 60.8984 33.6875 60.0547 33.6875C56.1172 33.6875 53.7969 36.7109 52.5312 38.8906C50.5625 35.0234 46.4844 32 42.3359 32C36.6406 32 32 36.7109 32 42.4062C32 47.2578 35.3047 51.3359 39.8047 52.4609L39.1719 53.7969C37.9062 57.2422 38.3984 60.8281 40.7891 63.8516C42.9688 66.5938 46.4141 68 50 68H66.8047C67.4375 68 67.9297 67.5781 67.9297 67.0156C68 65.75 67.0156 64.625 65.6797 64.625H63.6406C64.4844 63.3594 65.1172 61.8125 65.1172 60.125C65.1172 56.5391 63.0781 53.8672 59.8438 53.0938L60.3359 50H65.6797ZM56.8203 56.1875C58.2266 56.1875 59.7031 56.75 60.6875 57.7344C63.6406 60.6875 59.7734 64.2734 58.8594 64.625H49.0156C45.0781 64.625 41.8438 61.4609 41.8438 57.5234C41.8438 56.6797 42.0547 55.8359 42.3359 55.1328L45.0078 49.4375H42.6172C39.0312 49.4375 35.8672 46.9062 35.375 43.3203C34.8125 39.0312 38.1875 35.375 42.3359 35.375C46.2031 35.375 50.4219 39.6641 50.4219 43.5312H50.4922L46.625 52.6719C46.3438 53.3047 46.625 53.9375 47.1875 54.1484L48.3125 54.5703C48.875 54.8516 49.5781 54.5703 49.7891 54.0078L54.8516 41.7734C55.9062 39.5234 57.1016 38.1172 58.4375 37.4844V40.4375H60.0547C62.5156 40.4375 64.4844 42.6875 64.4844 45.5V46.625H57.4531L55.6953 56.1875H56.8203ZM60.0547 44.375C60.6875 44.375 61.1797 43.8828 61.1797 43.25C61.1797 42.6875 60.6875 42.125 60.0547 42.125C59.4219 42.125 58.9297 42.6875 58.9297 43.25C58.9297 43.8828 59.4922 44.375 60.0547 44.375Z" fill="#1F993F"/>
</svg>
