<svg width="14" height="14" viewBox="0 0 14 14" fill="none" xmlns="http://www.w3.org/2000/svg">
<g clip-path="url(#clip0_213_3832)">
<path d="M9.625 7C9.625 7.62891 9.57031 8.20312 9.51562 8.75H4.45703C4.40234 8.20312 4.34766 7.62891 4.34766 7C4.34766 6.39844 4.40234 5.82422 4.45703 5.25H9.51562C9.57031 5.82422 9.625 6.39844 9.625 7ZM13.7539 5.25C13.918 5.82422 14 6.39844 14 7C14 7.62891 13.918 8.20312 13.7539 8.75H10.3906C10.4453 8.20312 10.5 7.60156 10.5 7C10.5 6.39844 10.4453 5.82422 10.3906 5.25H13.7539ZM13.4805 4.375H10.2812C10.0078 2.65234 9.46094 1.17578 8.77734 0.246094C10.9102 0.820312 12.6602 2.35156 13.4805 4.375ZM9.40625 4.375H4.56641C4.73047 3.39062 5.00391 2.51562 5.30469 1.80469C5.60547 1.14844 5.90625 0.683594 6.23438 0.382812C6.53516 0.109375 6.78125 0 7 0C7.19141 0 7.4375 0.109375 7.73828 0.382812C8.06641 0.683594 8.36719 1.14844 8.66797 1.80469C8.96875 2.51562 9.24219 3.39062 9.40625 4.375ZM0.492188 4.375C1.3125 2.35156 3.0625 0.820312 5.19531 0.246094C4.51172 1.17578 3.96484 2.65234 3.69141 4.375H0.492188ZM3.58203 5.25C3.52734 5.82422 3.47266 6.39844 3.47266 7C3.47266 7.60156 3.52734 8.20312 3.58203 8.75H0.21875C0.0546875 8.20312 0 7.62891 0 7C0 6.39844 0.0546875 5.82422 0.21875 5.25H3.58203ZM5.30469 12.2227C5.00391 11.5117 4.73047 10.6367 4.56641 9.625H9.40625C9.24219 10.6367 8.96875 11.5117 8.66797 12.2227C8.36719 12.8789 8.06641 13.3438 7.73828 13.6445C7.4375 13.918 7.19141 14 6.97266 14C6.78125 14 6.53516 13.918 6.23438 13.6445C5.90625 13.3438 5.60547 12.8789 5.30469 12.2227ZM5.19531 13.7812C3.0625 13.207 1.3125 11.6758 0.492188 9.625H3.69141C3.96484 11.375 4.51172 12.8516 5.19531 13.7812ZM8.77734 13.7812C9.46094 12.8516 10.0078 11.375 10.2812 9.625H13.4805C12.6602 11.6758 10.9102 13.207 8.77734 13.7812Z" fill="#1F993F"/>
</g>
<defs>
<clipPath id="clip0_213_3832">
<rect width="14" height="14" fill="white"/>
</clipPath>
</defs>
</svg>
