<svg width="160" height="40" viewBox="0 0 160 40" fill="none" xmlns="http://www.w3.org/2000/svg">
<g clip-path="url(#clip0_501_3069)">
<path d="M40.1128 0H0V39.9995H40.1128V0Z" fill="#0D942B"/>
<path fill-rule="evenodd" clip-rule="evenodd" d="M13.3711 0V13.3333H0L13.3711 0Z" fill="#1F993F"/>
<path fill-rule="evenodd" clip-rule="evenodd" d="M13.3711 0V13.3333H26.7422L13.3711 0Z" fill="#1F8035"/>
<path fill-rule="evenodd" clip-rule="evenodd" d="M0 13.3333V0H13.3711L0 13.3333Z" fill="#4EBA30"/>
<path fill-rule="evenodd" clip-rule="evenodd" d="M26.7422 13.3333V0H13.3711L26.7422 13.3333ZM40.1128 13.3333L26.7422 0H40.1128V13.3333Z" fill="#239643"/>
<path fill-rule="evenodd" clip-rule="evenodd" d="M26.7422 0V13.3333H40.1128L26.7422 0Z" fill="#3EBA32"/>
<path fill-rule="evenodd" clip-rule="evenodd" d="M13.3711 13.3333V26.6667H0L13.3711 13.3333Z" fill="#1F993F"/>
<path fill-rule="evenodd" clip-rule="evenodd" d="M13.3711 13.3333V26.6667H26.7422L13.3711 13.3333Z" fill="#1B732E"/>
<path fill-rule="evenodd" clip-rule="evenodd" d="M0 26.6667V13.3333H13.3711L0 26.6667Z" fill="#4EBA30"/>
<path fill-rule="evenodd" clip-rule="evenodd" d="M26.7422 26.6667V13.3333H13.3711L26.7422 26.6667ZM40.1128 26.6667L26.7422 13.3333H40.1128V26.6667ZM26.7422 40V26.6667H40.1128L26.7422 40Z" fill="#25A832"/>
<path fill-rule="evenodd" clip-rule="evenodd" d="M26.7422 13.3333V26.6667H40.1128L26.7422 13.3333Z" fill="#2C6E36"/>
<path fill-rule="evenodd" clip-rule="evenodd" d="M13.3711 26.6667V40H0L13.3711 26.6667ZM40.1128 26.6667V40H26.7422L40.1128 26.6667Z" fill="#1A803F"/>
<path fill-rule="evenodd" clip-rule="evenodd" d="M13.3711 26.6667V40H26.7422L13.3711 26.6667Z" fill="#1C5926"/>
<path fill-rule="evenodd" clip-rule="evenodd" d="M0 40V26.6667H13.3711L0 40Z" fill="#4EBA30"/>
<path fill-rule="evenodd" clip-rule="evenodd" d="M26.7422 40V26.6667H13.3711L26.7422 40Z" fill="#56BD2D"/>
<path d="M65.4288 10.2012V29.8447C67.0069 30.0222 68.6001 30.0222 70.1783 29.8447V22.2127H78.5234V29.8447C80.0996 30.047 81.6953 30.047 83.2715 29.8447V10.2012C81.6976 9.96488 80.0972 9.96488 78.5234 10.2012V17.779H70.1783V10.2012C68.5986 10.0534 67.0085 10.0534 65.4288 10.2012ZM101.81 14.4115C102.065 13.0196 102.065 11.5931 101.81 10.2012H87.5641V29.8447H101.81C102.065 28.4435 102.065 27.008 101.81 25.6069H92.2547V21.9324H100.103C100.397 20.5353 100.397 19.0926 100.103 17.6955H92.2547V14.4115H101.81ZM118.864 29.8447C119.194 28.3847 119.194 26.87 118.864 25.41H110.254V10.2012C108.693 10.0559 107.122 10.0559 105.561 10.2012V29.8447H118.864ZM129.186 29.9291C123.319 29.9291 119.082 25.7349 119.093 20.0225C119.103 14.3101 123.388 10.0603 129.186 10.0603C134.984 10.0603 139.297 14.3271 139.308 20.0225C139.319 25.7179 135.054 29.9291 129.186 29.9291ZM129.186 25.4389C132.529 25.4389 134.587 23.184 134.587 20.0225C134.587 16.861 132.452 14.578 129.186 14.578C125.92 14.578 123.842 16.872 123.842 20.0225C123.842 23.173 125.844 25.4389 129.186 25.4389ZM146.711 16.8798L155.336 29.8447C156.885 30.0374 158.451 30.0374 160 29.8447V10.2012C158.486 10.0471 156.959 10.0471 155.445 10.2012V22.4908L147.369 10.2012C145.634 10.0475 143.888 10.0475 142.152 10.2012V29.8447C143.663 30.0757 145.2 30.0757 146.711 29.8447V16.8798ZM62.5431 23.9281C62.6287 19.5261 58.2574 18.7411 54.6931 17.846C54.2017 17.723 53.1794 17.5427 52.4386 17.2876C50.9475 16.7733 50.9203 15.269 52.4119 14.6019C53.2992 14.3152 54.2286 14.18 55.161 14.2018C56.9827 14.185 58.7981 14.4184 60.556 14.8955C61.18 13.6483 61.4416 12.2519 61.311 10.8641C59.1739 10.2323 56.9515 9.93458 54.723 9.98142C50.9962 10.1021 46.1869 11.3119 46.2679 15.7397C46.3204 18.6186 48.0103 19.7977 49.9771 20.7019C50.941 21.1447 54.769 22.0416 56.7653 22.8238C57.0361 22.8954 57.2734 23.0587 57.4365 23.2857C57.5997 23.5128 57.6784 23.7894 57.6593 24.0681C57.518 25.4862 55.7085 25.8252 54.3926 25.8821C52.0302 25.8527 49.6887 25.4354 47.4623 24.6471C46.8399 25.9753 46.6259 27.4576 46.8472 28.9069C49.3902 29.7207 52.0545 30.0931 54.7239 30.008C58.7428 29.8323 62.434 28.2655 62.5431 23.9281Z" fill="white"/>
</g>
<defs>
<clipPath id="clip0_501_3069">
<rect width="160" height="40" fill="white"/>
</clipPath>
</defs>
</svg>
