<svg width="100" height="100" viewBox="0 0 100 100" fill="none" xmlns="http://www.w3.org/2000/svg">
<path fill-rule="evenodd" clip-rule="evenodd" d="M1 50.5C1 57.1598 2.31494 63.5113 4.69891 69.3099L3.77403 69.6901C1.34133 63.773 5.93822e-07 57.2925 0 50.5C-2.43825e-06 22.6096 22.6096 2.43825e-06 50.5 0C61.5169 -9.63133e-07 71.7112 3.5284 80.0125 9.51665C81.0725 8.57319 82.4694 8 84 8C87.3138 8 90 10.6863 90 14C90 17.3137 87.3138 20 84 20C80.6863 20 78 17.3137 78 14C78 12.5803 78.4931 11.2758 79.3173 10.2484C71.2007 4.42701 61.2512 0.999999 50.5 1C23.1619 1 0.999998 23.1619 1 50.5ZM84 19C86.7615 19 89 16.7614 89 14C89 11.2386 86.7615 9 84 9C81.2386 9 79 11.2386 79 14C79 16.7614 81.2386 19 84 19Z" fill="#1F993F"/>
<path fill-rule="evenodd" clip-rule="evenodd" d="M99.0001 49.5001C99.0001 42.8403 97.6852 36.4888 95.3012 30.6902L96.2261 30.31C98.6588 36.2271 100 42.7076 100 49.5001C100 77.3905 77.3905 100 49.5001 100C38.4832 100 28.2889 96.4717 19.9876 90.4835C18.9276 91.4269 17.5308 92.0001 16.0001 92.0001C12.6863 92.0001 10.0001 89.3138 10.0001 86.0001C10.0001 82.6864 12.6863 80.0001 16.0001 80.0001C19.3138 80.0001 22.0001 82.6864 22.0001 86.0001C22.0001 87.4198 21.507 88.7243 20.6828 89.7517C28.7994 95.5731 38.7489 99.0001 49.5001 99.0001C76.8382 99.0001 99.0001 76.8382 99.0001 49.5001ZM16.0001 81.0001C13.2386 81.0001 11.0001 83.2387 11.0001 86.0001C11.0001 88.7616 13.2386 91.0001 16.0001 91.0001C18.7615 91.0001 21.0001 88.7616 21.0001 86.0001C21.0001 83.2387 18.7615 81.0001 16.0001 81.0001Z" fill="#1F993F"/>
<path d="M66.2126 34.8125C66.0017 34.4609 65.6501 34.25 65.2985 34.25C65.0173 34.25 64.6657 34.4609 64.4548 34.8125C62.697 37.8359 59.5329 39.3828 56.2985 39.3828C55.5251 39.3828 54.7517 39.3125 53.9782 39.1016C53.0642 38.8906 52.0798 38.75 51.1657 38.75C44.2751 38.75 38.7907 44.3047 38.7907 51.1953C38.7907 51.7578 38.7907 52.3906 38.9313 52.9531C33.3063 57.875 32.0407 63.7109 32.0407 63.7812C31.8298 64.6953 32.4626 65.5391 33.3767 65.75C33.447 65.75 33.5876 65.75 33.7282 65.75C34.5017 65.75 35.2048 65.2578 35.3454 64.4141C35.4157 64.1328 36.3298 60.1953 39.986 56.4688C41.9548 60.6875 46.2438 63.5 51.1657 63.5C52.7126 63.5 54.2595 63.2188 55.6657 62.6562C63.0485 60.1953 68.0407 52.6719 68.0407 43.6719C68.0407 40.5781 67.3376 37.4141 66.2126 34.8125ZM54.611 59.4219H54.5407L54.4001 59.4922C53.3454 59.9141 52.2204 60.125 51.0954 60.125C47.2282 60.125 43.9938 57.5938 42.7282 54.1484C45.611 52.1797 49.6188 50.4922 55.1735 50C56.0876 49.8594 56.7907 49.0859 56.6501 48.1016C56.5798 47.1875 55.736 46.5547 54.822 46.625C49.4079 47.1172 45.3298 48.5938 42.0954 50.5625C42.3767 45.8516 46.3142 42.125 51.0954 42.125C51.7985 42.125 52.5017 42.1953 53.1345 42.3359C54.1188 42.5469 55.1735 42.6875 56.2282 42.6875C59.2517 42.6875 61.9939 41.7031 64.2439 40.0156C64.5251 41.2109 64.6657 42.4766 64.6657 43.6719C64.6657 51.125 60.5876 57.4531 54.611 59.4219Z" fill="#1F993F"/>
</svg>
