<svg width="100" height="100" viewBox="0 0 100 100" fill="none" xmlns="http://www.w3.org/2000/svg">
<path fill-rule="evenodd" clip-rule="evenodd" d="M1 50.5C1 57.1598 2.31494 63.5113 4.69891 69.3099L3.77403 69.6901C1.34133 63.773 5.93822e-07 57.2925 0 50.5C-2.43825e-06 22.6096 22.6096 2.43825e-06 50.5 0C61.5169 -9.63133e-07 71.7112 3.5284 80.0125 9.51665C81.0725 8.57319 82.4694 8 84 8C87.3138 8 90 10.6863 90 14C90 17.3137 87.3138 20 84 20C80.6863 20 78 17.3137 78 14C78 12.5803 78.4931 11.2758 79.3173 10.2484C71.2007 4.42701 61.2512 0.999999 50.5 1C23.1619 1 0.999998 23.1619 1 50.5ZM84 19C86.7615 19 89 16.7614 89 14C89 11.2386 86.7615 9 84 9C81.2386 9 79 11.2386 79 14C79 16.7614 81.2386 19 84 19Z" fill="#1F993F"/>
<path fill-rule="evenodd" clip-rule="evenodd" d="M99.0001 49.5001C99.0001 42.8403 97.6852 36.4888 95.3012 30.6902L96.2261 30.31C98.6588 36.2271 100 42.7076 100 49.5001C100 77.3905 77.3905 100 49.5001 100C38.4832 100 28.2889 96.4717 19.9876 90.4835C18.9276 91.4269 17.5308 92.0001 16.0001 92.0001C12.6863 92.0001 10.0001 89.3138 10.0001 86.0001C10.0001 82.6864 12.6863 80.0001 16.0001 80.0001C19.3138 80.0001 22.0001 82.6864 22.0001 86.0001C22.0001 87.4198 21.507 88.7243 20.6828 89.7517C28.7994 95.5731 38.7489 99.0001 49.5001 99.0001C76.8382 99.0001 99.0001 76.8382 99.0001 49.5001ZM16.0001 81.0001C13.2386 81.0001 11.0001 83.2387 11.0001 86.0001C11.0001 88.7616 13.2386 91.0001 16.0001 91.0001C18.7615 91.0001 21.0001 88.7616 21.0001 86.0001C21.0001 83.2387 18.7615 81.0001 16.0001 81.0001Z" fill="#1F993F"/>
<path d="M55.625 53.375C55.625 52.8125 56.1172 52.25 56.75 52.25H59C59.5625 52.25 60.125 52.8125 60.125 53.375V55.625C60.125 56.2578 59.5625 56.75 59 56.75H56.75C56.1172 56.75 55.625 56.2578 55.625 55.625V53.375ZM55.625 39.875C55.625 39.3125 56.1172 38.75 56.75 38.75H59C59.5625 38.75 60.125 39.3125 60.125 39.875V42.125C60.125 42.7578 59.5625 43.25 59 43.25H56.75C56.1172 43.25 55.625 42.7578 55.625 42.125V39.875ZM56.75 50C56.1172 50 55.625 49.5078 55.625 48.875V46.625C55.625 46.0625 56.1172 45.5 56.75 45.5H59C59.5625 45.5 60.125 46.0625 60.125 46.625V48.875C60.125 49.5078 59.5625 50 59 50H56.75ZM63.5 32C65.9609 32 68 34.0391 68 36.5V63.5C68 66.0312 65.9609 68 63.5 68H52.25C49.7188 68 47.75 66.0312 47.75 63.5V36.5C47.75 34.0391 49.7188 32 52.25 32H63.5ZM63.5 35.375H52.25C51.6172 35.375 51.125 35.9375 51.125 36.5V63.5C51.125 64.1328 51.6172 64.625 52.25 64.625H63.5C64.0625 64.625 64.625 64.1328 64.625 63.5V36.5C64.625 35.9375 64.0625 35.375 63.5 35.375ZM45.5 44.375H37.0625C36.0781 44.375 35.375 45.1484 35.375 46.0625V62.9375C35.375 63.9219 36.0781 64.625 37.0625 64.625H45.5703C45.7812 65.9609 46.3438 67.0859 47.1875 68H37.0625C34.25 68 32 65.75 32 62.9375V46.0625C32 43.3203 34.25 41 37.0625 41H45.5V44.375ZM42.125 54.5C42.6875 54.5 43.25 55.0625 43.25 55.625V57.875C43.25 58.5078 42.6875 59 42.125 59H39.875C39.2422 59 38.75 58.5078 38.75 57.875V55.625C38.75 55.0625 39.2422 54.5 39.875 54.5H42.125ZM42.125 47.75C42.6875 47.75 43.25 48.3125 43.25 48.875V51.125C43.25 51.7578 42.6875 52.25 42.125 52.25H39.875C39.2422 52.25 38.75 51.7578 38.75 51.125V48.875C38.75 48.3125 39.2422 47.75 39.875 47.75H42.125Z" fill="#1F993F"/>
</svg>
