<svg width="100" height="100" viewBox="0 0 100 100" fill="none" xmlns="http://www.w3.org/2000/svg">
<path fill-rule="evenodd" clip-rule="evenodd" d="M1 50.5C1 57.1598 2.31494 63.5113 4.69891 69.3099L3.77403 69.6901C1.34133 63.773 5.93822e-07 57.2925 0 50.5C-2.43825e-06 22.6096 22.6096 2.43825e-06 50.5 0C61.5169 -9.63133e-07 71.7112 3.5284 80.0125 9.51665C81.0725 8.57319 82.4694 8 84 8C87.3138 8 90 10.6863 90 14C90 17.3137 87.3138 20 84 20C80.6863 20 78 17.3137 78 14C78 12.5803 78.4931 11.2758 79.3173 10.2484C71.2007 4.42701 61.2512 0.999999 50.5 1C23.1619 1 0.999998 23.1619 1 50.5ZM84 19C86.7615 19 89 16.7614 89 14C89 11.2386 86.7615 9 84 9C81.2386 9 79 11.2386 79 14C79 16.7614 81.2386 19 84 19Z" fill="#1F993F"/>
<path fill-rule="evenodd" clip-rule="evenodd" d="M99.0001 49.5001C99.0001 42.8403 97.6852 36.4888 95.3012 30.6902L96.2261 30.31C98.6588 36.2271 100 42.7076 100 49.5001C100 77.3905 77.3905 100 49.5001 100C38.4832 100 28.2889 96.4717 19.9876 90.4835C18.9276 91.4269 17.5308 92.0001 16.0001 92.0001C12.6863 92.0001 10.0001 89.3138 10.0001 86.0001C10.0001 82.6864 12.6863 80.0001 16.0001 80.0001C19.3138 80.0001 22.0001 82.6864 22.0001 86.0001C22.0001 87.4198 21.507 88.7243 20.6828 89.7517C28.7994 95.5731 38.7489 99.0001 49.5001 99.0001C76.8382 99.0001 99.0001 76.8382 99.0001 49.5001ZM16.0001 81.0001C13.2386 81.0001 11.0001 83.2387 11.0001 86.0001C11.0001 88.7616 13.2386 91.0001 16.0001 91.0001C18.7615 91.0001 21.0001 88.7616 21.0001 86.0001C21.0001 83.2387 18.7615 81.0001 16.0001 81.0001Z" fill="#1F993F"/>
<path d="M31.375 41.5625C31.375 42.5469 30.6016 43.25 29.6875 43.25C28.7031 43.25 28 42.5469 28 41.5625V34.25C28 33.0547 28.9844 32 30.25 32H37.5625C38.4766 32 39.25 32.7734 39.25 33.6875C39.25 34.6719 38.4766 35.375 37.5625 35.375H31.375V41.5625ZM69.625 35.375H63.4375C62.4531 35.375 61.75 34.6719 61.75 33.6875C61.75 32.7734 62.4531 32 63.4375 32H70.75C71.9453 32 73 33.0547 73 34.25V41.5625C73 42.5469 72.2266 43.25 71.3125 43.25C70.3281 43.25 69.625 42.5469 69.625 41.5625V35.375ZM39.25 66.3125C39.25 67.2969 38.4766 68 37.5625 68H30.25C28.9844 68 28 67.0156 28 65.75V58.4375C28 57.5234 28.7031 56.75 29.6875 56.75C30.6016 56.75 31.375 57.5234 31.375 58.4375V64.625H37.5625C38.4766 64.625 39.25 65.3984 39.25 66.3125ZM69.625 58.4375C69.625 57.5234 70.3281 56.75 71.3125 56.75C72.2266 56.75 73 57.5234 73 58.4375V65.75C73 67.0156 71.9453 68 70.75 68H63.4375C62.4531 68 61.75 67.2969 61.75 66.3125C61.75 65.3984 62.4531 64.625 63.4375 64.625H69.625V58.4375ZM46.8438 52.3906C47.2656 52.3203 47.7578 52.25 48.25 52.25H52.75C53.1719 52.25 53.6641 52.3203 54.0859 52.3906C54.1562 52.4609 54.2266 52.4609 54.2969 52.4609C55.9844 52.8828 57.3906 53.8672 58.3047 55.2734C58.375 55.4141 58.5156 55.5547 58.5859 55.625C59.1484 56.6797 59.5 57.8047 59.5 59C59.5 60.2656 58.4453 61.25 57.25 61.25H43.75C42.4844 61.25 41.5 60.2656 41.5 59C41.5 57.8047 41.7812 56.6797 42.3438 55.625C43.2578 54.0781 44.8047 52.8828 46.6328 52.4609C46.7031 52.4609 46.7734 52.4609 46.8438 52.3906ZM55.9141 57.875C55.4219 56.6094 54.1562 55.625 52.75 55.625H48.25C46.7734 55.625 45.5078 56.6094 45.0156 57.875H55.9141ZM45.4375 44.9375C45.4375 42.1953 47.6875 39.875 50.5 39.875C53.2422 39.875 55.5625 42.1953 55.5625 44.9375C55.5625 46.5547 54.7891 48.0312 53.5938 48.9453C53.3125 49.1562 53.0312 49.3672 52.75 49.5078C52.0469 49.8594 51.2734 50 50.5 50C49.6562 50 48.8828 49.8594 48.25 49.5078C47.8984 49.3672 47.6172 49.1562 47.3359 48.9453C46.1406 48.0312 45.4375 46.5547 45.4375 44.9375ZM50.5 46.625C51.4141 46.625 52.1875 45.9219 52.1875 44.9375C52.1875 44.0234 51.4141 43.25 50.5 43.25C49.5156 43.25 48.8125 44.0234 48.8125 44.9375C48.8125 45.9219 49.5156 46.625 50.5 46.625ZM43.6797 44.375C43.6797 46.2734 42.2031 47.75 40.3047 47.75C38.4766 47.75 36.9297 46.2734 36.9297 44.375C36.9297 42.5469 38.4766 41 40.3047 41C42.2031 41 43.6797 42.5469 43.6797 44.375ZM34.75 53.7969C34.75 51.6875 36.3672 50 38.4766 50H43.3281C44.0312 50 44.6641 50.2109 45.2266 50.5625C42.7656 51.4062 40.8672 53.3047 39.8828 55.625H36.5781C35.5234 55.625 34.75 54.8516 34.75 53.7969ZM55.7031 50.5625C56.2656 50.2109 56.8984 50 57.6016 50H62.4531C64.5625 50 66.25 51.6875 66.25 53.7969C66.25 54.8516 65.4062 55.625 64.3516 55.625H61.0469C60.0625 53.3047 58.1641 51.4062 55.7031 50.5625ZM64 44.375C64 46.2734 62.4531 47.75 60.625 47.75C58.7266 47.75 57.25 46.2734 57.25 44.375C57.25 42.5469 58.7266 41 60.625 41C62.4531 41 64 42.5469 64 44.375Z" fill="#1F993F"/>
</svg>
