<svg width="100" height="100" viewBox="0 0 100 100" fill="none" xmlns="http://www.w3.org/2000/svg">
<path fill-rule="evenodd" clip-rule="evenodd" d="M1 50.5001C1 57.16 2.31494 63.5114 4.69891 69.31L3.77403 69.6903C1.34133 63.7732 5.93822e-07 57.2927 0 50.5001C-2.43825e-06 22.6097 22.6096 0.000124509 50.5 0.00012207C61.5169 0.000121107 71.7112 3.52852 80.0125 9.51677C81.0725 8.57332 82.4694 8.00012 84 8.00012C87.3138 8.00012 90 10.6864 90 14.0001C90 17.3138 87.3138 20.0001 84 20.0001C80.6863 20.0001 78 17.3138 78 14.0001C78 12.5805 78.4931 11.276 79.3173 10.2485C71.2007 4.42713 61.2512 1.00012 50.5 1.00012C23.1619 1.00012 0.999998 23.162 1 50.5001ZM84 19.0001C86.7615 19.0001 89 16.7615 89 14.0001C89 11.2387 86.7615 9.00012 84 9.00012C81.2386 9.00012 79 11.2387 79 14.0001C79 16.7615 81.2386 19.0001 84 19.0001Z" fill="#1F993F"/>
<path fill-rule="evenodd" clip-rule="evenodd" d="M99.0001 49.5002C99.0001 42.8404 97.6852 36.4889 95.3012 30.6904L96.2261 30.3101C98.6588 36.2272 100 42.7077 100 49.5002C100 77.3906 77.3905 100 49.5001 100C38.4832 100 28.2889 96.4718 19.9876 90.4836C18.9276 91.427 17.5308 92.0002 16.0001 92.0002C12.6863 92.0002 10.0001 89.3139 10.0001 86.0002C10.0001 82.6865 12.6863 80.0002 16.0001 80.0002C19.3138 80.0002 22.0001 82.6865 22.0001 86.0002C22.0001 87.4199 21.507 88.7244 20.6828 89.7518C28.7994 95.5732 38.7489 99.0002 49.5001 99.0002C76.8382 99.0002 99.0001 76.8383 99.0001 49.5002ZM16.0001 81.0002C13.2386 81.0002 11.0001 83.2388 11.0001 86.0002C11.0001 88.7617 13.2386 91.0002 16.0001 91.0002C18.7615 91.0002 21.0001 88.7617 21.0001 86.0002C21.0001 83.2388 18.7615 81.0002 16.0001 81.0002Z" fill="#1F993F"/>
<path d="M71.8047 42.1329L51.9062 35.0314C51.4844 34.8907 50.9922 34.7501 50.5 34.7501C49.9375 34.7501 49.4453 34.8907 48.9531 35.0314L29.125 42.1329C28.4219 42.4142 28 43.047 28 43.7501C28 44.5236 28.4219 45.1564 29.125 45.4376L33.3438 46.9142C32.5 48.0392 31.8672 49.3048 31.5859 50.7111C30.8125 51.0626 30.25 51.8361 30.25 52.7501C30.25 53.4532 30.5312 54.0861 31.0234 54.5079L29.3359 64.9845C29.1953 65.6876 29.7578 66.2501 30.3906 66.2501H34.5391C35.1719 66.2501 35.7344 65.6876 35.5938 64.9845L33.9062 54.5079C34.3984 54.0861 34.75 53.4532 34.75 52.7501C34.75 52.047 34.3281 51.4142 33.8359 51.0626C34.1172 49.797 34.75 48.672 35.5938 47.7579L48.9531 52.5392C49.4453 52.6798 49.9375 52.7501 50.5 52.7501C50.9922 52.7501 51.4844 52.6798 51.9766 52.5392L71.8047 45.4376C72.5078 45.1564 73 44.5236 73 43.7501C73 43.047 72.5078 42.4142 71.8047 42.1329ZM50.8516 49.3751C50.5 49.4454 50.2188 49.3751 50.1484 49.3751L40.3047 45.8595L50.7812 42.6251C51.4141 42.4142 51.6953 41.7814 51.5547 41.2189C51.3438 40.5861 50.7109 40.2345 50.1484 40.4454L36.7891 44.5939L34.5391 43.7501L50.0781 38.1954C50.3594 38.1251 50.6406 38.1954 50.7812 38.1954L66.3906 43.7501L50.8516 49.3751ZM59.7812 52.1173L60.625 59.9923C60.625 60.7657 57.1094 62.8751 50.5 62.8751C43.8203 62.8751 40.375 60.7657 40.375 59.9923L41.1484 52.1173L37.9141 50.9923L37 59.8517C37 64.1407 43.75 66.2501 50.5 66.2501C57.1797 66.2501 64 64.1407 63.9297 59.8517L63.0156 50.9923L59.7812 52.1173Z" fill="#1F993F"/>
</svg>
