<svg width="100" height="100" viewBox="0 0 100 100" fill="none" xmlns="http://www.w3.org/2000/svg">
<path fill-rule="evenodd" clip-rule="evenodd" d="M1 50.5C1 57.1598 2.31494 63.5113 4.69891 69.3099L3.77403 69.6901C1.34133 63.773 5.93822e-07 57.2925 0 50.5C-2.43825e-06 22.6096 22.6096 2.43825e-06 50.5 0C61.5169 -9.63133e-07 71.7112 3.5284 80.0125 9.51665C81.0725 8.57319 82.4694 8 84 8C87.3138 8 90 10.6863 90 14C90 17.3137 87.3138 20 84 20C80.6863 20 78 17.3137 78 14C78 12.5803 78.4931 11.2758 79.3173 10.2484C71.2007 4.42701 61.2512 0.999999 50.5 1C23.1619 1 0.999998 23.1619 1 50.5ZM84 19C86.7615 19 89 16.7614 89 14C89 11.2386 86.7615 9 84 9C81.2386 9 79 11.2386 79 14C79 16.7614 81.2386 19 84 19Z" fill="#1F993F"/>
<path fill-rule="evenodd" clip-rule="evenodd" d="M99.0001 49.5001C99.0001 42.8403 97.6852 36.4888 95.3012 30.6902L96.2261 30.31C98.6588 36.2271 100 42.7076 100 49.5001C100 77.3905 77.3905 100 49.5001 100C38.4832 100 28.2889 96.4717 19.9876 90.4835C18.9276 91.4269 17.5308 92.0001 16.0001 92.0001C12.6863 92.0001 10.0001 89.3138 10.0001 86.0001C10.0001 82.6864 12.6863 80.0001 16.0001 80.0001C19.3138 80.0001 22.0001 82.6864 22.0001 86.0001C22.0001 87.4198 21.507 88.7243 20.6828 89.7517C28.7994 95.5731 38.7489 99.0001 49.5001 99.0001C76.8382 99.0001 99.0001 76.8382 99.0001 49.5001ZM16.0001 81.0001C13.2386 81.0001 11.0001 83.2387 11.0001 86.0001C11.0001 88.7616 13.2386 91.0001 16.0001 91.0001C18.7615 91.0001 21.0001 88.7616 21.0001 86.0001C21.0001 83.2387 18.7615 81.0001 16.0001 81.0001Z" fill="#1F993F"/>
<path d="M53.2352 28.5151C44.5568 28.5151 41.4848 42.0127 38.6336 52.8607C37.6064 51.8143 34.4288 48.6463 34.4192 48.6559C33.776 48.0223 33.0464 48.2239 32.5952 48.6655C32.144 49.1167 32.0768 49.9519 32.5952 50.4607C32.624 50.4799 36.896 54.7519 38.384 56.2303C38.7872 56.6239 39.3824 56.8639 39.968 56.5183C40.5824 56.1439 40.6688 55.4719 40.6784 55.4719C45.7472 32.7583 50.288 31.0687 53.2256 31.0687C55.7024 31.0687 58.5536 32.8927 58.5536 36.5503C62.2496 36.5503 64.5536 41.3983 61.5872 44.3839C64.0448 45.5743 65.1488 47.0431 65.1488 48.8959C65.1488 50.7487 63.5936 52.6495 61.328 52.6399C59.0816 52.6399 57.9392 51.1999 56.1824 51.1903C55.3856 51.1903 54.9056 51.8335 54.9056 52.4671V57.0559H51.5936V52.4863C51.584 51.7663 51.056 51.2095 50.4032 51.2095C50.3936 51.2095 50.1152 51.2191 50.1248 51.2287L45.6992 51.7759C45.1616 51.8527 44.672 52.4287 44.672 53.0335C44.672 53.7343 45.248 54.3199 46.0352 54.3103C46.1312 54.3103 46.2656 54.3103 46.256 54.3007C46.2464 54.3007 49.0592 53.9455 49.0592 53.9455V58.4479C49.0592 59.0239 49.712 59.5807 50.288 59.5807H56.1728C56.864 59.5807 57.4496 58.9951 57.4496 58.2943V54.1567C58.6784 54.9055 60.3872 55.2031 61.2704 55.2031C64.5728 55.2031 67.7216 52.6111 67.7024 48.7999C67.6928 45.3439 65.0528 43.6255 65.0528 43.6255C66.5984 39.4975 64.1024 35.5135 60.848 34.4095C59.6768 30.1567 56.048 28.5151 53.2352 28.5151Z" fill="#1F993F"/>
<path d="M53.2352 28.5151C44.5568 28.5151 41.4848 42.0127 38.6336 52.8607C37.6064 51.8143 34.4288 48.6463 34.4192 48.6559C33.776 48.0223 33.0464 48.2239 32.5952 48.6655C32.144 49.1167 32.0768 49.9519 32.5952 50.4607C32.624 50.4799 36.896 54.7519 38.384 56.2303C38.7872 56.6239 39.3824 56.8639 39.968 56.5183C40.5824 56.1439 40.6688 55.4719 40.6784 55.4719C45.7472 32.7583 50.288 31.0687 53.2256 31.0687C55.7024 31.0687 58.5536 32.8927 58.5536 36.5503C62.2496 36.5503 64.5536 41.3983 61.5872 44.3839C64.0448 45.5743 65.1488 47.0431 65.1488 48.8959C65.1488 50.7487 63.5936 52.6495 61.328 52.6399C59.0816 52.6399 57.9392 51.1999 56.1824 51.1903C55.3856 51.1903 54.9056 51.8335 54.9056 52.4671V57.0559H51.5936V52.4863C51.584 51.7663 51.056 51.2095 50.4032 51.2095C50.3936 51.2095 50.1152 51.2191 50.1248 51.2287L45.6992 51.7759C45.1616 51.8527 44.672 52.4287 44.672 53.0335C44.672 53.7343 45.248 54.3199 46.0352 54.3103C46.1312 54.3103 46.2656 54.3103 46.256 54.3007C46.2464 54.3007 49.0592 53.9455 49.0592 53.9455V58.4479C49.0592 59.0239 49.712 59.5807 50.288 59.5807H56.1728C56.864 59.5807 57.4496 58.9951 57.4496 58.2943V54.1567C58.6784 54.9055 60.3872 55.2031 61.2704 55.2031C64.5728 55.2031 67.7216 52.6111 67.7024 48.7999C67.6928 45.3439 65.0528 43.6255 65.0528 43.6255C66.5984 39.4975 64.1024 35.5135 60.848 34.4095C59.6768 30.1567 56.048 28.5151 53.2352 28.5151Z" fill="#1F993F"/>
<path d="M49.5297 64.64C49.5297 65.7056 50.7201 66.3488 52.6785 67.28C54.2337 68.0096 55.1265 68.7776 55.1265 69.4016C55.1265 70.4 54.0513 70.7552 53.0433 70.7552C51.4785 70.7552 50.5569 70.1312 50.0481 68.7392L50.0097 68.6144H49.8849C49.6065 68.6144 49.3857 68.624 49.2705 68.7776C49.1649 68.9216 49.1937 69.104 49.2417 69.2864L49.5873 70.7168C49.6833 71.072 49.8081 71.12 50.3649 71.2352C50.6049 71.2736 51.8721 71.4944 52.9377 71.4944C55.9233 71.4944 57.2577 70.2848 57.2577 69.0752C57.2577 68.2016 56.3937 67.3568 54.5217 66.4352L53.6673 66.0224C52.3905 65.4176 51.6129 65.0432 51.6129 64.4096C51.6129 63.7856 52.4097 63.3536 53.5617 63.3536C55.0497 63.3536 55.4529 64.1888 55.6353 64.9184L55.6737 65.0528H55.8177C56.1537 65.0528 56.3553 65.024 56.4801 64.8896C56.5569 64.8128 56.5761 64.7072 56.5665 64.5824L56.4513 63.3344C56.4225 62.9408 56.1153 62.8736 55.6929 62.7968C55.1937 62.7008 54.5889 62.5952 53.6865 62.5952C51.0753 62.6144 49.5297 63.3728 49.5297 64.64Z" fill="#1F993F"/>
<path d="M58.1216 67.1553C58.1216 69.3153 59.9936 71.5041 63.584 71.5041C65.3888 71.5041 66.416 71.0913 67.1744 70.6881L67.3856 70.5729L67.0496 70.2081L67.0688 70.2273C66.992 70.1121 66.9248 70.0929 66.8096 70.0929L66.6368 70.1505C66.368 70.2753 65.5328 70.6593 64.0256 70.6593C62.1728 70.6593 60.176 69.4497 60.176 66.7809C60.176 64.2465 62.3456 63.3537 64.1888 63.3537C65.5232 63.3537 66.224 63.8337 66.3584 64.8129L66.3776 64.9761H66.5408C66.6944 64.9761 67.1168 64.9761 67.1168 64.6593V63.1809C67.1168 62.8161 66.704 62.7681 66.5216 62.7393L66.3488 62.7201C65.9264 62.6625 65.5136 62.6145 64.4384 62.6145C60.7712 62.6145 58.1216 64.5153 58.1216 67.1553Z" fill="#1F993F"/>
<path d="M44.6048 62.7106L41.3792 62.7394L39.2192 62.701L38.8928 62.6914C38.7008 62.6914 38.5664 62.8354 38.5664 63.0274C38.5664 63.1234 38.5664 63.4114 38.9216 63.4114C40.2272 63.4114 40.2752 63.517 40.2848 64.0162L40.2944 64.333L40.3136 65.6674V68.5282C40.3136 69.0082 40.2944 69.757 40.2656 70.3714C40.256 70.5442 40.2464 70.717 39.0944 70.717C38.7776 70.717 38.576 70.7842 38.576 71.101C38.576 71.197 38.576 71.437 38.8832 71.437H38.96C39.0944 71.4274 39.4592 71.4178 41.2544 71.4178C43.1648 71.4178 43.5584 71.437 43.6832 71.437H43.7504C44 71.437 44.2208 71.4082 44.2208 71.101C44.2208 70.7458 43.9232 70.717 43.4432 70.717C42.2912 70.717 42.2816 70.5538 42.272 70.381C42.2432 69.8242 42.224 69.0658 42.224 68.5378V67.5106H43.1936C44.672 67.5106 44.8448 67.549 45.056 68.6914C45.1136 68.941 45.3152 68.9698 45.4784 68.9698C45.824 68.9698 45.8624 68.7778 45.8624 68.6914L45.8336 68.269C45.8144 68.029 45.7856 67.7218 45.7856 67.2994V65.5426C45.7856 65.2738 45.4688 65.2738 45.3056 65.2738C45.0272 65.2738 44.96 65.4562 44.7776 66.2818C44.7008 66.5986 44.0864 66.781 43.0976 66.781H42.224V64.1986C42.224 63.4978 42.3488 63.4882 42.5024 63.4882C43.0688 63.4594 44.4416 63.4114 44.8544 63.4114C45.248 63.4114 45.6032 63.4978 45.8432 63.6514C46.5728 64.1122 46.9472 64.4194 47.1776 64.6018C47.3984 64.7842 47.5232 64.8898 47.7056 64.8898C47.8112 64.8898 48.1184 64.8898 48.1184 64.621C48.1184 64.5538 48.0896 64.4962 47.9936 64.2754C47.8688 64.0066 47.6672 63.5746 47.4176 62.9026C47.3504 62.6914 47.1008 62.6914 46.6496 62.6914L44.6048 62.7106Z" fill="#1F993F"/>
<path d="M65.6289 32.7585C65.2545 32.7585 64.9089 32.6625 64.5825 32.4897C64.2561 32.3073 63.9969 32.0481 63.8049 31.7217C63.6129 31.3857 63.5073 31.0305 63.5073 30.6465C63.5073 30.2721 63.6033 29.9169 63.7857 29.5809C63.9777 29.2545 64.2369 28.9953 64.5633 28.8033C64.8993 28.6113 65.2449 28.5249 65.6193 28.5249C65.9937 28.5249 66.3489 28.6209 66.6753 28.8033C67.0017 28.9953 67.2609 29.2449 67.4529 29.5809C67.6449 29.9073 67.7313 30.2625 67.7313 30.6465C67.7313 31.0305 67.6353 31.3857 67.4337 31.7217C67.2417 32.0481 66.9729 32.3073 66.6561 32.4897C66.3489 32.6625 65.9937 32.7585 65.6289 32.7585ZM65.6289 32.4321C65.9457 32.4321 66.2433 32.3553 66.5121 32.2017C66.7905 32.0481 67.0113 31.8273 67.1745 31.5489C67.3377 31.2705 67.4241 30.9633 67.4241 30.6369C67.4241 30.3201 67.3473 30.0129 67.1841 29.7345C67.0209 29.4561 66.8097 29.2353 66.5217 29.0721C66.2433 28.9089 65.9457 28.8321 65.6289 28.8321C65.3121 28.8321 65.0145 28.9089 64.7361 29.0721C64.4577 29.2353 64.2369 29.4465 64.0737 29.7345C63.9105 30.0129 63.8337 30.3105 63.8337 30.6369C63.8337 30.9633 63.9201 31.2705 64.0833 31.5489C64.2465 31.8273 64.4673 32.0481 64.7457 32.2017C65.0145 32.3553 65.3121 32.4321 65.6289 32.4321Z" fill="#1F993F"/>
<path d="M65.6289 32.7585C65.2545 32.7585 64.9089 32.6625 64.5825 32.4897C64.2561 32.3073 63.9969 32.0481 63.8049 31.7217C63.6129 31.3857 63.5073 31.0305 63.5073 30.6465C63.5073 30.2721 63.6033 29.9169 63.7857 29.5809C63.9777 29.2545 64.2369 28.9953 64.5633 28.8033C64.8993 28.6113 65.2449 28.5249 65.6193 28.5249C65.9937 28.5249 66.3489 28.6209 66.6753 28.8033C67.0017 28.9953 67.2609 29.2449 67.4529 29.5809C67.6449 29.9073 67.7313 30.2625 67.7313 30.6465C67.7313 31.0305 67.6353 31.3857 67.4337 31.7217C67.2417 32.0481 66.9729 32.3073 66.6561 32.4897C66.3489 32.6625 65.9937 32.7585 65.6289 32.7585ZM65.6289 32.4321C65.9457 32.4321 66.2433 32.3553 66.5121 32.2017C66.7905 32.0481 67.0113 31.8273 67.1745 31.5489C67.3377 31.2705 67.4241 30.9633 67.4241 30.6369C67.4241 30.3201 67.3473 30.0129 67.1841 29.7345C67.0209 29.4561 66.8097 29.2353 66.5217 29.0721C66.2433 28.9089 65.9457 28.8321 65.6289 28.8321C65.3121 28.8321 65.0145 28.9089 64.7361 29.0721C64.4577 29.2353 64.2369 29.4465 64.0737 29.7345C63.9105 30.0129 63.8337 30.3105 63.8337 30.6369C63.8337 30.9633 63.9201 31.2705 64.0833 31.5489C64.2465 31.8273 64.4673 32.0481 64.7457 32.2017C65.0145 32.3553 65.3121 32.4321 65.6289 32.4321Z" stroke="#1F993F" stroke-width="0.066"/>
<path d="M66.5791 31.808L66.1951 31.088C66.1087 30.9344 66.0319 30.8288 65.9551 30.7712C66.0895 30.704 66.2047 30.608 66.2719 30.4928C66.3487 30.368 66.3871 30.2336 66.3871 30.0992C66.3871 29.984 66.3583 29.8688 66.3007 29.7632C66.2431 29.6576 66.1663 29.5808 66.0703 29.5232C65.9743 29.4656 65.8303 29.4368 65.6479 29.4368H64.9087H64.8799V29.456V31.808V31.8368H64.9087H65.2831H65.3119V31.808V30.8576H65.5615C65.5711 30.8576 65.6095 30.8672 65.7247 31.0784L65.8015 31.2224L66.1183 31.8368L66.1279 31.8464H66.1471H66.5695H66.6079L66.5791 31.808ZM65.5231 30.5504H65.2735V29.7536H65.5519C65.6767 29.7536 65.7727 29.7728 65.8207 29.8112C65.8687 29.8496 65.9071 29.888 65.9359 29.9456C65.9647 30.0032 65.9743 30.0608 65.9743 30.128C65.9743 30.2336 65.9455 30.3392 65.8783 30.4256C65.8111 30.5024 65.6959 30.5504 65.5231 30.5504Z" fill="#1F993F"/>
</svg>
