<svg width="100" height="100" viewBox="0 0 100 100" fill="none" xmlns="http://www.w3.org/2000/svg">
<path fill-rule="evenodd" clip-rule="evenodd" d="M1 50.5C1 57.1598 2.31494 63.5113 4.69891 69.3099L3.77403 69.6901C1.34133 63.773 5.93822e-07 57.2925 0 50.5C-2.43825e-06 22.6096 22.6096 2.43825e-06 50.5 0C61.5169 -9.63133e-07 71.7112 3.5284 80.0125 9.51665C81.0725 8.57319 82.4694 8 84 8C87.3138 8 90 10.6863 90 14C90 17.3137 87.3138 20 84 20C80.6863 20 78 17.3137 78 14C78 12.5803 78.4931 11.2758 79.3173 10.2484C71.2007 4.42701 61.2512 0.999999 50.5 1C23.1619 1 0.999998 23.1619 1 50.5ZM84 19C86.7615 19 89 16.7614 89 14C89 11.2386 86.7615 9 84 9C81.2386 9 79 11.2386 79 14C79 16.7614 81.2386 19 84 19Z" fill="#1F993F"/>
<path fill-rule="evenodd" clip-rule="evenodd" d="M99.0001 49.5001C99.0001 42.8403 97.6852 36.4888 95.3012 30.6902L96.2261 30.31C98.6588 36.2271 100 42.7076 100 49.5001C100 77.3905 77.3905 100 49.5001 100C38.4832 100 28.2889 96.4717 19.9876 90.4835C18.9276 91.4269 17.5308 92.0001 16.0001 92.0001C12.6863 92.0001 10.0001 89.3138 10.0001 86.0001C10.0001 82.6864 12.6863 80.0001 16.0001 80.0001C19.3138 80.0001 22.0001 82.6864 22.0001 86.0001C22.0001 87.4198 21.507 88.7243 20.6828 89.7517C28.7994 95.5731 38.7489 99.0001 49.5001 99.0001C76.8382 99.0001 99.0001 76.8382 99.0001 49.5001ZM16.0001 81.0001C13.2386 81.0001 11.0001 83.2387 11.0001 86.0001C11.0001 88.7616 13.2386 91.0001 16.0001 91.0001C18.7615 91.0001 21.0001 88.7616 21.0001 86.0001C21.0001 83.2387 18.7615 81.0001 16.0001 81.0001Z" fill="#1F993F"/>
<path d="M66.2829 34.5625C66.072 34.2109 65.7204 34 65.3689 34C65.0876 34 64.736 34.2109 64.5251 34.5625C62.7673 37.5859 59.6032 39.1328 56.3688 39.1328C55.5954 39.1328 54.822 39.0625 54.0485 38.8516C53.1345 38.6406 52.1501 38.5 51.236 38.5C44.3454 38.5 38.861 44.0547 38.861 50.875C38.861 51.5078 38.861 52.0703 38.9313 52.7031C33.3063 57.4844 32.111 63.25 32.0407 63.5312C31.8298 64.4453 32.4626 65.2891 33.3767 65.5C33.5173 65.5 33.6579 65.5 33.7985 65.5C34.572 65.5 35.2751 65.0078 35.4157 64.1641C35.4157 64.1641 36.3298 60.1562 40.0563 56.3594C42.0954 60.4375 46.3142 63.25 51.1657 63.25C52.7829 63.25 54.3298 62.9688 55.736 62.4062C63.1188 59.9453 68.111 52.4219 68.111 43.4219C68.111 40.3281 67.4079 37.1641 66.2829 34.5625ZM54.6813 59.1719H54.611L54.4704 59.2422C53.4157 59.6641 52.2907 59.875 51.236 59.875C46.2438 59.875 42.236 55.8672 42.236 50.875C42.236 45.9531 46.2438 41.875 51.236 41.875C51.9392 41.875 52.6423 42.0156 53.2751 42.1562C54.2595 42.3672 55.3142 42.5078 56.3688 42.5078C59.3923 42.5078 62.1345 41.5234 64.3845 39.7656C64.5954 40.9609 64.736 42.2266 64.736 43.4219C64.736 50.875 60.6579 57.2031 54.6813 59.1719ZM53.4157 46.375L52.8532 46.8672L52.361 46.375C51.0954 45.1094 48.986 44.8984 47.5798 46.0234C45.9626 47.4297 45.8923 49.8203 47.3688 51.2969L52.2907 56.2891C52.6423 56.6406 53.1345 56.6406 53.486 56.2891L58.4079 51.2969C59.8845 49.8203 59.8142 47.4297 58.197 46.0234C56.7907 44.8984 54.6813 45.1094 53.4157 46.375Z" fill="#1F993F"/>
</svg>
