<svg width="16" height="16" viewBox="0 0 16 16" fill="none" xmlns="http://www.w3.org/2000/svg">
<path d="M9 1.33325C5.24733 1.33325 2.192 4.29059 2.01667 7.99992H0L3.02467 11.9446L6 7.99992H4.01667C4.19 5.39859 6.35533 3.33325 9 3.33325C11.7573 3.33325 14 5.57592 14 8.33325C14 11.0906 11.7573 13.3333 9 13.3333C7.41267 13.3333 5.99867 12.5873 5.08267 11.4306L3.85133 13.0633C5.13067 14.4553 6.96067 15.3333 9 15.3333C12.8653 15.3333 16 12.1986 16 8.33325C16 4.46792 12.8653 1.33325 9 1.33325Z" fill="#1F993F"/>
</svg>
