<svg width="24" height="24" viewBox="0 0 24 24" fill="inherit" xmlns="http://www.w3.org/2000/svg">
<path d="M20.9428 16.5758L20.1001 20.1222C19.9947 20.6489 19.5734 21 19.0467 21C10.1982 20.9649 3 13.7667 3 4.91822C3 4.39152 3.31602 3.97017 3.84271 3.86483L7.38913 3.02211C7.88072 2.91677 8.40741 3.19768 8.61809 3.65415L10.2684 7.48147C10.444 7.93794 10.3386 8.46464 9.95239 8.74554L8.05628 10.2905C9.25012 12.7133 11.2165 14.6796 13.6744 15.8735L15.2193 13.9774C15.5002 13.6263 16.0269 13.4858 16.4834 13.6614L20.3107 15.3117C20.7672 15.5575 21.0481 16.0842 20.9428 16.5758Z" fill="inherit"/>
</svg>
