<svg width="16" height="17" viewBox="0 0 16 17" fill="inherit" xmlns="http://www.w3.org/2000/svg">
<g clip-path="url(#clip0_91_275)">
<path d="M8.77467 13.1628C9.18067 13.1628 9.34667 12.8922 9.342 12.5528C9.32133 11.2748 9.818 10.5868 10.7147 11.4835C11.7067 12.4755 11.912 13.1628 13.1167 13.1628H15.25C15.7887 13.1628 16.0007 12.9895 16.0007 12.7175C16.0007 12.1422 15.0533 11.1268 14.2507 10.3815C13.1267 9.33816 13.074 9.3135 14.042 8.0575C15.2427 6.49816 16.8133 4.50016 15.424 4.50016H12.77C12.2553 4.50016 12.218 4.79016 12.0347 5.22216C11.3713 6.78683 10.1107 8.8135 9.632 8.5035C9.13133 8.18016 9.36067 6.8995 9.39867 4.99616C9.40867 4.4935 9.406 4.14883 8.638 3.97016C8.21867 3.8735 7.81067 3.8335 7.432 3.8335C5.91667 3.8335 4.87133 4.46883 5.46533 4.5795C6.51267 4.77483 6.412 7.04083 6.168 8.0195C5.74267 9.7235 4.144 6.67016 3.478 5.1495C3.31733 4.78416 3.268 4.50016 2.69467 4.50016H0.524667C0.196667 4.50016 0 4.60683 0 4.84416C0 5.2455 1.97333 9.32416 3.85733 11.3575C5.69467 13.3408 7.51067 13.1628 8.77467 13.1628V13.1628Z" fill="inherit"/>
</g>
<defs>
<clipPath id="clip0_91_275">
<rect width="16" height="16" fill="white" transform="translate(0 0.5)"/>
</clipPath>
</defs>
</svg>
