<svg width="1920" height="320" viewBox="0 0 1920 320" fill="none" xmlns="http://www.w3.org/2000/svg">
<g clip-path="url(#clip0_109_614)">
<path fill-rule="evenodd" clip-rule="evenodd" d="M52.5542 53.8203L-0.848722 53.8203L-0.848717 0.417305L52.5542 53.8203Z" fill="#1F733A"/>
<path fill-rule="evenodd" clip-rule="evenodd" d="M52.5707 53.8203L105.974 0.417309L105.974 53.8203L52.5707 53.8203Z" fill="#1F733A"/>
<path fill-rule="evenodd" clip-rule="evenodd" d="M159.376 53.8208L105.974 53.8208L105.974 0.417793L159.376 53.8208Z" fill="#28A74A"/>
<path fill-rule="evenodd" clip-rule="evenodd" d="M159.376 53.8203L159.376 107.223L105.974 107.223L159.376 53.8203Z" fill="#1F733A"/>
<path fill-rule="evenodd" clip-rule="evenodd" d="M-0.831767 53.8203L52.5707 53.8203L52.5707 107.223L-0.831767 53.8203Z" fill="#1F733A"/>
<path fill-rule="evenodd" clip-rule="evenodd" d="M105.974 53.8203L52.5707 107.223L52.5707 53.8203L105.974 53.8203Z" fill="#1E9848"/>
<path fill-rule="evenodd" clip-rule="evenodd" d="M52.5707 107.244L105.974 107.244L105.974 160.646L52.5707 107.244Z" fill="#1E9848"/>
<path fill-rule="evenodd" clip-rule="evenodd" d="M105.974 160.671L159.376 160.671L159.376 214.073L105.974 160.671Z" fill="#1E9848"/>
<path fill-rule="evenodd" clip-rule="evenodd" d="M105.974 160.647L105.974 107.244L159.376 107.244L105.974 160.647Z" fill="#1E592D"/>
<path fill-rule="evenodd" clip-rule="evenodd" d="M105.974 160.671L159.376 214.073L105.974 214.073L105.974 160.671Z" fill="#1E592D"/>
<path fill-rule="evenodd" clip-rule="evenodd" d="M105.974 214.073L52.5707 160.671L105.974 160.671L105.974 214.073Z" fill="#1E592D"/>
<path fill-rule="evenodd" clip-rule="evenodd" d="M212.779 107.223L159.376 107.223L159.376 53.8203L212.779 107.223Z" fill="#1E9848"/>
<path fill-rule="evenodd" clip-rule="evenodd" d="M266.181 53.8203L266.181 107.223L212.778 107.223L266.181 53.8203Z" fill="#58B847"/>
<path fill-rule="evenodd" clip-rule="evenodd" d="M266.181 53.8203L319.584 107.223L266.181 107.223L266.181 53.8203Z" fill="#1F733A"/>
<path fill-rule="evenodd" clip-rule="evenodd" d="M372.987 160.646L319.584 107.244L372.987 107.244L372.987 160.646Z" fill="#1E592D"/>
<path fill-rule="evenodd" clip-rule="evenodd" d="M212.779 107.244L159.376 160.647L159.376 107.244L212.779 107.244Z" fill="#58B847"/>
<path fill-rule="evenodd" clip-rule="evenodd" d="M52.5706 320.881L-0.831791 320.881L-0.831786 267.478L52.5706 320.881Z" fill="#1E9848"/>
<path fill-rule="evenodd" clip-rule="evenodd" d="M105.974 214.073L52.5707 214.073L52.5707 160.671L105.974 214.073Z" fill="#45B549"/>
<path fill-rule="evenodd" clip-rule="evenodd" d="M212.779 214.073L159.376 214.073L159.376 160.671L212.779 214.073Z" fill="#1F733A"/>
<path fill-rule="evenodd" clip-rule="evenodd" d="M52.5707 267.476L52.5707 214.074L105.974 214.074L52.5707 267.476Z" fill="#1E9848"/>
<path fill-rule="evenodd" clip-rule="evenodd" d="M159.376 267.476L159.376 214.074L212.779 214.074L159.376 267.476Z" fill="#58B847"/>
<path fill-rule="evenodd" clip-rule="evenodd" d="M159.376 160.671L212.779 160.671L212.779 214.073L159.376 160.671Z" fill="#1E592D"/>
<path fill-rule="evenodd" clip-rule="evenodd" d="M212.778 214.073L212.778 160.671L266.181 160.671L212.778 214.073Z" fill="#1E9848"/>
<path fill-rule="evenodd" clip-rule="evenodd" d="M266.181 160.671L266.181 214.073L212.778 214.073L266.181 160.671Z" fill="#28A74A"/>
<path fill-rule="evenodd" clip-rule="evenodd" d="M266.181 160.647L266.181 107.244L319.584 107.244L266.181 160.647Z" fill="#1E9848"/>
<path fill-rule="evenodd" clip-rule="evenodd" d="M212.779 214.074L212.779 267.476L159.376 267.476L212.779 214.074Z" fill="#28A74A"/>
<path fill-rule="evenodd" clip-rule="evenodd" d="M159.376 320.881L159.376 267.478L212.779 267.478L159.376 320.881Z" fill="#58B847"/>
<path fill-rule="evenodd" clip-rule="evenodd" d="M212.779 267.478L212.779 320.881L159.376 320.881L212.779 267.478Z" fill="#28A74A"/>
<path fill-rule="evenodd" clip-rule="evenodd" d="M319.584 214.074L319.584 267.476L266.181 267.476L319.584 214.074Z" fill="#28A74A"/>
<path fill-rule="evenodd" clip-rule="evenodd" d="M372.987 267.478L372.987 320.881L319.584 320.881L372.987 267.478Z" fill="#1F733A"/>
<path fill-rule="evenodd" clip-rule="evenodd" d="M319.584 320.881L266.181 320.881L266.181 267.478L319.584 320.881Z" fill="#1F733A"/>
<path fill-rule="evenodd" clip-rule="evenodd" d="M266.181 267.478L266.181 320.881L212.778 320.881L266.181 267.478Z" fill="#1E592D"/>
<path fill-rule="evenodd" clip-rule="evenodd" d="M212.778 267.476L212.778 214.074L266.181 214.074L212.778 267.476Z" fill="#58B847"/>
<path fill-rule="evenodd" clip-rule="evenodd" d="M212.778 320.881L212.778 267.478L266.181 267.478L212.778 320.881Z" fill="#1F733A"/>
<path fill-rule="evenodd" clip-rule="evenodd" d="M105.974 267.476L105.974 214.074L159.376 214.074L105.974 267.476Z" fill="#1E592D"/>
<path fill-rule="evenodd" clip-rule="evenodd" d="M-0.831782 214.074L52.5706 214.074L52.5706 267.476L-0.831782 214.074Z" fill="#1F733A"/>
<path fill-rule="evenodd" clip-rule="evenodd" d="M-0.831786 267.478L52.5706 267.478L52.5706 320.881L-0.831786 267.478Z" fill="#1F733A"/>
<path fill-rule="evenodd" clip-rule="evenodd" d="M266.181 214.073L266.181 160.671L319.584 160.671L266.181 214.073Z" fill="#58B847"/>
<path fill-rule="evenodd" clip-rule="evenodd" d="M372.987 267.476L372.987 214.074L426.389 214.074L372.987 267.476Z" fill="#1F733A"/>
<path fill-rule="evenodd" clip-rule="evenodd" d="M426.389 214.125L426.389 267.528L372.987 267.528L426.389 214.125Z" fill="#1E592D"/>
<path fill-rule="evenodd" clip-rule="evenodd" d="M426.389 320.881L372.987 320.881L372.987 267.478L426.389 320.881Z" fill="#28A74A"/>
<path fill-rule="evenodd" clip-rule="evenodd" d="M372.987 267.478L426.389 267.478L426.389 320.881L372.987 267.478Z" fill="#1E592D"/>
<path fill-rule="evenodd" clip-rule="evenodd" d="M426.389 320.881L426.389 267.478L479.792 267.478L426.389 320.881Z" fill="#1F733A"/>
<path fill-rule="evenodd" clip-rule="evenodd" d="M479.792 267.478L479.792 320.881L426.389 320.881L479.792 267.478Z" fill="#1E9848"/>
<path fill-rule="evenodd" clip-rule="evenodd" d="M533.195 320.881L479.792 320.881L479.792 267.478L533.195 320.881Z" fill="#58B847"/>
<path fill-rule="evenodd" clip-rule="evenodd" d="M479.792 267.528L426.389 267.528L426.389 214.125L479.792 267.528Z" fill="#1E592D"/>
<path fill-rule="evenodd" clip-rule="evenodd" d="M266.181 107.244L266.181 160.647L212.778 160.647L266.181 107.244Z" fill="#1E9848"/>
<path fill-rule="evenodd" clip-rule="evenodd" d="M372.987 214.073L319.584 214.073L319.584 160.671L372.987 214.073Z" fill="#58B847"/>
<path fill-rule="evenodd" clip-rule="evenodd" d="M319.584 214.074L372.987 214.074L372.987 267.476L319.584 214.074Z" fill="#58B847"/>
<path fill-rule="evenodd" clip-rule="evenodd" d="M426.389 160.671L426.389 214.073L372.987 214.073L426.389 160.671Z" fill="#1E9848"/>
<path fill-rule="evenodd" clip-rule="evenodd" d="M533.195 320.881L533.195 267.478L586.598 267.478L533.195 320.881Z" fill="#58B847"/>
<path fill-rule="evenodd" clip-rule="evenodd" d="M52.5707 160.646L-0.831775 160.646L-0.831771 107.244L52.5707 160.646Z" fill="#58B847"/>
<path fill-rule="evenodd" clip-rule="evenodd" d="M52.5707 160.671L-0.831779 214.073L-0.831774 160.671L52.5707 160.671Z" fill="#1E9848"/>
<path fill-rule="evenodd" clip-rule="evenodd" d="M105.974 214.074L105.974 267.476L52.5707 267.476L105.974 214.074Z" fill="#1E592D"/>
<path fill-rule="evenodd" clip-rule="evenodd" d="M52.5707 320.881L52.5707 267.478L105.974 267.478L52.5707 320.881Z" fill="#1F733A"/>
<path fill-rule="evenodd" clip-rule="evenodd" d="M105.974 267.478L105.974 320.881L52.5707 320.881L105.974 267.478Z" fill="#1E9848"/>
<path fill-rule="evenodd" clip-rule="evenodd" d="M105.974 160.647L159.376 107.244L159.376 160.647L105.974 160.647Z" fill="#58B847"/>
<path fill-rule="evenodd" clip-rule="evenodd" d="M1013.43 320.867L1066.83 320.867L1066.83 267.464L1013.43 320.867Z" fill="#1E9848"/>
<path fill-rule="evenodd" clip-rule="evenodd" d="M906.624 267.464L906.624 320.867L960.027 320.867L906.624 267.464Z" fill="#1A803F"/>
<path fill-rule="evenodd" clip-rule="evenodd" d="M1013.43 267.461L1013.43 214.059L960.026 214.059L1013.43 267.461Z" fill="#1E9848"/>
<path fill-rule="evenodd" clip-rule="evenodd" d="M906.624 267.461L906.624 214.059L853.221 214.059L906.624 267.461Z" fill="#58B847"/>
<path fill-rule="evenodd" clip-rule="evenodd" d="M853.221 214.059L853.221 267.461L906.624 267.461L853.221 214.059Z" fill="#28A74A"/>
<path fill-rule="evenodd" clip-rule="evenodd" d="M906.624 320.867L906.624 267.464L853.221 267.464L906.624 320.867Z" fill="#58B847"/>
<path fill-rule="evenodd" clip-rule="evenodd" d="M853.221 267.464L853.221 320.867L906.624 320.867L853.221 267.464Z" fill="#28A74A"/>
<path fill-rule="evenodd" clip-rule="evenodd" d="M746.416 214.059L746.416 267.461L799.819 267.461L746.416 214.059Z" fill="#28A74A"/>
<path fill-rule="evenodd" clip-rule="evenodd" d="M693.013 267.464L693.013 320.867L746.416 320.867L693.013 267.464Z" fill="#1F733A"/>
<path fill-rule="evenodd" clip-rule="evenodd" d="M746.416 320.867L799.819 320.867L799.819 267.464L746.416 320.867Z" fill="#1F733A"/>
<path fill-rule="evenodd" clip-rule="evenodd" d="M799.819 267.464L799.819 320.867L853.222 320.867L799.819 267.464Z" fill="#1E592D"/>
<path fill-rule="evenodd" clip-rule="evenodd" d="M853.222 267.461L853.222 214.059L799.819 214.059L853.222 267.461Z" fill="#58B847"/>
<path fill-rule="evenodd" clip-rule="evenodd" d="M853.222 320.867L853.222 267.464L799.819 267.464L853.222 320.867Z" fill="#1F733A"/>
<path fill-rule="evenodd" clip-rule="evenodd" d="M960.026 267.461L960.026 214.059L906.624 214.059L960.026 267.461Z" fill="#1E592D"/>
<path fill-rule="evenodd" clip-rule="evenodd" d="M1066.83 267.464L1013.43 267.464L1013.43 320.867L1066.83 267.464Z" fill="#1F733A"/>
<path fill-rule="evenodd" clip-rule="evenodd" d="M693.013 267.461L693.013 214.059L639.611 214.059L693.013 267.461Z" fill="#1F733A"/>
<path fill-rule="evenodd" clip-rule="evenodd" d="M639.611 214.11L639.611 267.513L693.013 267.513L639.611 214.11Z" fill="#1E592D"/>
<path fill-rule="evenodd" clip-rule="evenodd" d="M639.611 320.867L693.013 320.867L693.013 267.464L639.611 320.867Z" fill="#28A74A"/>
<path fill-rule="evenodd" clip-rule="evenodd" d="M693.013 267.464L639.611 267.464L639.611 320.867L693.013 267.464Z" fill="#1E592D"/>
<path fill-rule="evenodd" clip-rule="evenodd" d="M639.611 320.867L639.611 267.464L586.208 267.464L639.611 320.867Z" fill="#1F733A"/>
<path fill-rule="evenodd" clip-rule="evenodd" d="M586.208 267.464L586.208 320.867L639.611 320.867L586.208 267.464Z" fill="#1E9848"/>
<path fill-rule="evenodd" clip-rule="evenodd" d="M532.805 320.867L586.208 320.867L586.208 267.464L532.805 320.867Z" fill="#58B847"/>
<path fill-rule="evenodd" clip-rule="evenodd" d="M586.208 267.513L639.611 267.513L639.611 214.11L586.208 267.513Z" fill="#1E592D"/>
<path fill-rule="evenodd" clip-rule="evenodd" d="M693.013 214.059L746.416 214.059L746.416 160.656L693.013 214.059Z" fill="#58B847"/>
<path fill-rule="evenodd" clip-rule="evenodd" d="M746.416 214.059L693.013 214.059L693.013 267.461L746.416 214.059Z" fill="#58B847"/>
<path fill-rule="evenodd" clip-rule="evenodd" d="M639.611 160.656L639.611 214.059L693.013 214.059L639.611 160.656Z" fill="#1E9848"/>
<path fill-rule="evenodd" clip-rule="evenodd" d="M1066.85 267.461L1120.25 267.461L1120.25 214.059L1066.85 267.461Z" fill="#229547"/>
<path fill-rule="evenodd" clip-rule="evenodd" d="M960.026 214.059L960.026 267.461L1013.43 267.461L960.026 214.059Z" fill="#1E592D"/>
<path fill-rule="evenodd" clip-rule="evenodd" d="M1013.43 320.867L1013.43 267.464L960.026 267.464L1013.43 320.867Z" fill="#1F733A"/>
<path fill-rule="evenodd" clip-rule="evenodd" d="M960.026 267.464L960.026 320.867L1013.43 320.867L960.026 267.464Z" fill="#1E9848"/>
<path fill-rule="evenodd" clip-rule="evenodd" d="M1066.85 267.464L1120.25 320.867L1120.25 267.464L1066.85 267.464Z" fill="#58B847"/>
<path fill-rule="evenodd" clip-rule="evenodd" d="M1173.8 213.809L1173.8 267.212L1120.4 267.212L1173.8 213.809Z" fill="#1E9848"/>
<path fill-rule="evenodd" clip-rule="evenodd" d="M1227.22 267.213L1280.63 267.213L1280.63 320.615L1227.22 267.213Z" fill="#58B847"/>
<path fill-rule="evenodd" clip-rule="evenodd" d="M1280.63 320.615L1280.63 267.213L1334.03 267.213L1280.63 320.615Z" fill="#1E9848"/>
<path fill-rule="evenodd" clip-rule="evenodd" d="M1120.4 320.615L1120.4 267.213L1173.81 267.213L1120.4 320.615Z" fill="#58B847"/>
<path fill-rule="evenodd" clip-rule="evenodd" d="M1173.8 267.213L1173.8 320.615L1120.4 320.615L1173.8 267.213Z" fill="#1F733A"/>
<path fill-rule="evenodd" clip-rule="evenodd" d="M1227.22 267.213L1227.22 320.615L1173.81 320.615L1227.22 267.213Z" fill="#58B847"/>
<path fill-rule="evenodd" clip-rule="evenodd" d="M1334.03 267.213L1334.03 320.615L1280.62 320.615L1334.03 267.213Z" fill="#58B847"/>
<path fill-rule="evenodd" clip-rule="evenodd" d="M1173.81 320.615L1173.81 267.213L1227.22 267.213L1173.81 320.615Z" fill="#1E592D"/>
<path fill-rule="evenodd" clip-rule="evenodd" d="M1387.43 267.329L1440.84 320.731L1387.43 320.731L1387.43 267.329Z" fill="#1F733A"/>
<path fill-rule="evenodd" clip-rule="evenodd" d="M1387.43 320.732L1334.03 267.33L1387.43 267.33L1387.43 320.732Z" fill="#1F733A"/>
<path fill-rule="evenodd" clip-rule="evenodd" d="M1440.84 267.269L1440.84 213.867L1494.24 213.867L1440.84 267.269Z" fill="#1E9848"/>
<path fill-rule="evenodd" clip-rule="evenodd" d="M1494.24 267.33L1494.24 320.732L1440.84 320.732L1494.24 267.33Z" fill="#1E9848"/>
<path fill-rule="evenodd" clip-rule="evenodd" d="M1494.24 267.269L1494.24 213.867L1547.64 213.867L1494.24 267.269Z" fill="#1F733A"/>
<path fill-rule="evenodd" clip-rule="evenodd" d="M1814.65 267.384L1761.25 267.384L1761.25 213.981L1814.65 267.384Z" fill="#58B847"/>
<path fill-rule="evenodd" clip-rule="evenodd" d="M1547.64 320.787L1547.64 267.384L1601.04 267.384L1547.64 320.787Z" fill="#58B847"/>
<path fill-rule="evenodd" clip-rule="evenodd" d="M1654.45 320.787L1654.45 267.384L1707.85 267.384L1654.45 320.787Z" fill="#1F733A"/>
<path fill-rule="evenodd" clip-rule="evenodd" d="M1547.64 267.271L1547.64 213.869L1601.04 213.869L1547.64 267.271Z" fill="#1E9848"/>
<path fill-rule="evenodd" clip-rule="evenodd" d="M1601.04 267.271L1601.04 213.869L1654.45 213.869L1601.04 267.271Z" fill="#58B847"/>
<path fill-rule="evenodd" clip-rule="evenodd" d="M1707.85 267.271L1707.85 213.869L1761.25 213.869L1707.85 267.271Z" fill="#28A74A"/>
<path fill-rule="evenodd" clip-rule="evenodd" d="M1601.04 213.867L1601.04 160.464L1654.45 160.464L1601.04 213.867Z" fill="#1F733A"/>
<path fill-rule="evenodd" clip-rule="evenodd" d="M1654.45 160.464L1654.45 213.867L1601.04 213.867L1654.45 160.464Z" fill="#1E9848"/>
<path fill-rule="evenodd" clip-rule="evenodd" d="M1707.85 213.867L1654.45 213.867L1654.45 160.464L1707.85 213.867Z" fill="#58B847"/>
<path fill-rule="evenodd" clip-rule="evenodd" d="M1654.45 267.269L1654.45 213.867L1707.85 213.867L1654.45 267.269Z" fill="#1E9848"/>
<path fill-rule="evenodd" clip-rule="evenodd" d="M1654.45 267.384L1654.45 320.787L1601.04 320.787L1654.45 267.384Z" fill="#1E592D"/>
</g>
<defs>
<clipPath id="clip0_109_614">
<rect width="1920" height="320" fill="white"/>
</clipPath>
</defs>
</svg>
