<?xml version="1.0" encoding="utf-8"?><svg viewBox="0 0 502.66 502.66" xmlns="http://www.w3.org/2000/svg" xmlns:xlink="http://www.w3.org/1999/xlink"><style>:root>svg{display:none}:root>svg:target{display:block}</style><svg fill="none" viewBox="0 0 16 16" id="arrow-down" xmlns="http://www.w3.org/2000/svg"><path d="M4.816 5.35L3.755 6.41l4.243 4.243.002-.002.003.002 4.243-4.242-1.06-1.061L8 8.535 4.816 5.35z" fill="#fff"/></svg><svg fill="inherit" viewBox="0 0 7 14" id="arrow-right" xmlns="http://www.w3.org/2000/svg"><path d="M0 0v3.748L3.5 7 0 10.252V14l6.967-7L0 0z"/></svg><svg fill="inherit" viewBox="0 0 24 24" id="burger" xmlns="http://www.w3.org/2000/svg"><path d="M2 2h4v4H2V2zm0 8h4v4H2v-4zm0 8h4v4H2v-4zm8-16h4v4h-4V2zm0 8h4v4h-4v-4zm0 8h4v4h-4v-4zm8-16h4v4h-4V2zm0 8h4v4h-4v-4zm0 8h4v4h-4v-4z"/></svg><svg fill="none" viewBox="0 0 24 24" id="cross" xmlns="http://www.w3.org/2000/svg"><path d="M10.778 12.192L3 19.971l1.414 1.414 7.778-7.778 7.779 7.778 1.414-1.414-7.778-7.779 7.778-7.778L19.97 3l-7.779 7.778L4.414 3 3 4.414l7.778 7.778z" fill="#242424"/></svg><svg viewBox="0 0 502.664 502.664" id="icon" xmlns="http://www.w3.org/2000/svg"><path d="M153.821 358.226L0 274.337v-46.463l153.821-83.414v54.574L46.636 250.523l107.185 53.431v54.272zm26.273 29.358L282.103 115.08h32.227L212.084 387.584h-31.99zm168.749-29.358v-54.272l107.164-52.999-107.164-52.59v-53.927l153.821 83.522v46.183l-153.821 84.083z" fill="#010002"/></svg><svg fill="none" viewBox="0 0 16 16" id="mail" xmlns="http://www.w3.org/2000/svg"><path d="M8 8.475L.01 2h15.98L8 8.475zM4.383 7.261L0 3.708v8.334l4.383-4.781zm7.234 0L16 12.042V3.708l-4.383 3.553zm-1.038.84L8 10.191l-2.579-2.09L.015 14h15.97L10.58 8.101z" fill="#fff"/></svg><svg fill="inherit" viewBox="0 0 24 24" id="phone" xmlns="http://www.w3.org/2000/svg"><path d="M20.943 16.576l-.843 3.546c-.105.527-.527.878-1.053.878C10.198 20.965 3 13.767 3 4.918c0-.526.316-.948.843-1.053l3.546-.843c.492-.105 1.018.176 1.23.632l1.65 3.827c.175.457.07.984-.317 1.265L8.056 10.29a12.193 12.193 0 005.618 5.584l1.545-1.897c.281-.35.808-.491 1.264-.316l3.828 1.65c.456.246.737.773.632 1.265z"/></svg><svg fill="inherit" viewBox="0 0 52 11" id="ruso" xmlns="http://www.w3.org/2000/svg"><path d="M13.424 6.353V.252h2.191v6.025c0 1.415.823 2.388 2.39 2.388 1.567 0 2.373-.974 2.373-2.388V.252h2.207v6.086c0 2.526-1.492 4.245-4.58 4.245-3.09 0-4.58-1.735-4.58-4.23zM27.791 8.97l1.17-1.644a4.448 4.448 0 003.227 1.37c1.187 0 1.765-.548 1.765-1.127 0-1.795-5.843-.563-5.843-4.382C28.11 1.5 29.57.1 31.96.1c1.613 0 2.951.486 3.956 1.415l-1.203 1.582c-.82-.76-1.916-1.11-2.951-1.11-.928 0-1.445.41-1.445 1.02 0 1.612 5.827.532 5.827 4.32 0 1.857-1.324 3.257-4.062 3.257-1.947 0-3.347-.655-4.291-1.614zm13.421-3.678C41.212 2.21 43.467 0 46.551 0c3.098 0 5.353 2.209 5.353 5.292 0 3.083-2.255 5.292-5.353 5.292-3.084 0-5.339-2.209-5.339-5.292zm8.452 0c0-1.916-1.227-3.358-3.113-3.358-1.887 0-3.099 1.442-3.099 3.358 0 1.903 1.212 3.36 3.099 3.36 1.886 0 3.113-1.457 3.113-3.36zM5.935 6.535c1.095-.258 2.222-1.217 2.222-3.012 0-1.887-1.293-3.271-3.409-3.271H0v1.901h4.429c.867 0 1.521.517 1.521 1.37 0 .851-.655 1.37-1.521 1.37H0V10.4h2.16V6.795h1.584L5.737 10.4h2.48L5.936 6.535z"/></svg><svg fill="none" viewBox="0 0 12 24" id="shape" xmlns="http://www.w3.org/2000/svg"><path fill-rule="evenodd" clip-rule="evenodd" d="M12 12H0v12l12-12z" fill="#1F993F"/><path fill-rule="evenodd" clip-rule="evenodd" d="M12 12L0 0v12h12z" fill="#58B847"/></svg><svg fill="inherit" viewBox="0 0 16 17" id="vk" xmlns="http://www.w3.org/2000/svg"><g clip-path="url(#ja)"><path d="M8.775 13.163c.406 0 .572-.27.567-.61-.02-1.278.476-1.966 1.373-1.07.992.992 1.197 1.68 2.402 1.68h2.133c.539 0 .75-.174.75-.446 0-.575-.947-1.59-1.75-2.335-1.123-1.044-1.176-1.069-.208-2.325 1.2-1.559 2.771-3.557 1.382-3.557H12.77c-.515 0-.552.29-.735.722-.664 1.565-1.924 3.591-2.403 3.282-.5-.324-.271-1.604-.233-3.508.01-.503.007-.847-.761-1.026a5.38 5.38 0 00-1.206-.137c-1.515 0-2.56.636-1.967.747 1.048.195.947 2.46.703 3.44-.425 1.704-2.024-1.35-2.69-2.87-.16-.366-.21-.65-.783-.65H.525C.197 4.5 0 4.607 0 4.844c0 .401 1.973 4.48 3.857 6.513 1.838 1.984 3.654 1.806 4.918 1.806z"/></g><defs><clipPath id="ja"><path fill="#fff" transform="translate(0 .5)" d="M0 0h16v16H0z"/></clipPath></defs></svg><svg fill="inherit" viewBox="0 0 16 17" id="youtube" xmlns="http://www.w3.org/2000/svg"><g clip-path="url(#ka)"><path d="M13.077 2.623c-2.403-.164-7.754-.164-10.154 0C.325 2.8.02 4.369 0 8.5c.02 4.123.323 5.7 2.923 5.877 2.4.164 7.751.164 10.154 0C15.675 14.2 15.98 12.631 16 8.5c-.02-4.123-.323-5.7-2.923-5.877zM6 11.167V5.833l5.333 2.662L6 11.167z"/></g><defs><clipPath id="ka"><path fill="#fff" transform="translate(0 .5)" d="M0 0h16v16H0z"/></clipPath></defs></svg></svg>