<svg width="100" height="26" viewBox="0 0 100 26" fill="none" xmlns="http://www.w3.org/2000/svg">
<path d="M52.8738 18.2182V12.4414H54.5642C56.4751 12.4414 57.4232 13.5438 57.4232 15.3371C57.4232 17.1305 56.4604 18.2182 54.5642 18.2182H52.8738ZM60.0397 15.3371C60.0397 12.1253 57.8936 10.0013 54.5642 10.0013H50.272V20.673H54.5642C57.8789 20.673 60.0397 18.5343 60.0397 15.3371ZM38.2185 10.0013V16.0942C38.2185 19.034 40.1955 20.7392 43.2016 20.7465C46.2076 20.7539 48.1773 19.0634 48.1847 16.0942V10.0013C47.3095 9.92041 46.4287 9.92041 45.5535 10.0013V16.0648C45.5535 17.6008 44.7817 18.3138 43.2016 18.3211C41.6214 18.3285 40.8644 17.5861 40.8717 16.0648V10.0013C39.9897 9.90937 39.1005 9.90937 38.2185 10.0013ZM36.7485 17.4685C36.7926 15.0725 34.4481 14.6463 32.5371 14.1612C32.2726 14.095 31.7287 13.9995 31.3318 13.8598C30.5307 13.5806 30.516 12.7647 31.3318 12.3899C31.8054 12.2322 32.3027 12.1576 32.8017 12.1694C33.7798 12.1583 34.7545 12.2845 35.6975 12.5442C36.0326 11.8605 36.1724 11.0975 36.1018 10.3393C34.9549 9.99931 33.7625 9.83817 32.5665 9.86161C30.5748 9.92776 27.995 10.5966 28.0391 12.9926C28.0391 14.5507 28.9725 15.1975 30.0235 15.6826C30.5454 15.9251 32.5959 16.4175 33.6617 16.8365C33.807 16.8768 33.934 16.9661 34.0211 17.0894C34.1082 17.2126 34.15 17.3621 34.1394 17.5126C34.0659 18.2844 33.0957 18.4681 32.3902 18.4975C31.1214 18.4906 29.8624 18.2745 28.6639 17.8581C28.3279 18.5804 28.2128 19.3858 28.3331 20.1732C29.6949 20.6117 31.1219 20.8131 32.5518 20.7686C34.7053 20.673 36.6897 19.8205 36.7485 17.4685ZM66.919 18.5122C65.3389 18.5122 64.2805 17.4685 64.2805 15.3298C64.2805 13.191 65.258 12.1547 66.919 12.1547C68.5801 12.1547 69.5282 13.1984 69.5282 15.3298C69.5282 17.4612 68.4992 18.5122 66.919 18.5122ZM66.919 9.95715C63.7146 9.95715 61.2892 11.993 61.2892 15.3298C61.2892 18.6665 63.7146 20.7024 66.919 20.7024C70.1235 20.7024 72.5195 18.6739 72.5195 15.3298C72.5195 11.9857 70.1309 9.95715 66.919 9.95715ZM94.2379 12.5589C94.8466 13.7942 95.3912 15.06 95.8695 16.3514H92.3637C92.842 15.06 93.3866 13.7942 93.9953 12.5589H94.2379ZM88.2332 20.6436C89.1375 20.7723 90.0555 20.7723 90.9599 20.6436C91.151 19.9748 91.3568 19.3207 91.5626 18.6739H96.7074C96.9132 19.3207 97.1116 19.9748 97.31 20.6436C98.2144 20.7724 99.1324 20.7724 100.037 20.6436C98.9281 17.0022 97.5347 13.4536 95.8695 10.0307C94.7267 9.95346 93.58 9.95346 92.4372 10.0307C90.772 13.4536 89.3786 17.0022 88.2699 20.6436H88.2332ZM76.6133 13.2939L79.34 20.6436C80.0355 20.7318 80.7393 20.7318 81.4347 20.6436L84.1614 13.2939H84.2423C84.4334 15.4253 84.5142 17.9463 84.551 20.6436C85.4105 20.7428 86.2785 20.7428 87.1381 20.6436C87.0646 17.1011 86.8416 13.5634 86.4692 10.0307C85.3191 9.95347 84.165 9.95347 83.0149 10.0307L80.391 17.3142L77.7672 10.0307C76.617 9.95347 75.463 9.95347 74.3128 10.0307C73.9356 13.5683 73.7102 17.106 73.6367 20.6436C74.4957 20.7502 75.3647 20.7502 76.2238 20.6436C76.2679 17.9757 76.3414 15.4547 76.5398 13.2939H76.6133Z" fill="black"/>
<path fill-rule="evenodd" clip-rule="evenodd" d="M8.5917 2.53402L10.0616 1.01998C10.1668 0.866142 10.3068 0.739313 10.4702 0.649816C10.6336 0.560319 10.8159 0.510685 11.0022 0.504954C11.1884 0.499224 11.3734 0.537559 11.542 0.616838C11.7106 0.696117 11.8582 0.8141 11.9726 0.96118C14.612 3.51203 17.0519 6.26153 19.2708 9.18549C19.3989 9.36681 19.4731 9.58068 19.4848 9.80239C19.4964 10.0241 19.4451 10.2446 19.3367 10.4383C19.2283 10.6321 19.0672 10.7912 18.8722 10.8972C18.6771 11.0033 18.456 11.052 18.2345 11.0376H15.5225C17.2999 12.6615 18.908 14.4616 20.3218 16.4102C20.9759 17.3731 20.41 18.2697 19.5868 18.2697H17.0438C18.7626 19.8808 20.3343 21.6419 21.7403 23.5321C21.9012 23.7083 22.0047 23.9293 22.037 24.1657C22.0694 24.4021 22.029 24.6427 21.9214 24.8557C21.8137 25.0686 21.6438 25.2438 21.4342 25.3579C21.2247 25.472 20.9854 25.5196 20.7481 25.4945H0.992108C0.736754 25.4945 0.49186 25.393 0.311298 25.2125C0.130736 25.0319 0.0292969 24.787 0.0292969 24.5317C0.0292969 24.2763 0.130736 24.0314 0.311298 23.8509C0.49186 23.6703 0.736754 23.5689 0.992108 23.5689H11.0244V21.8784H3.40281C3.14746 21.8784 2.90256 21.777 2.722 21.5964C2.54144 21.4159 2.44 21.171 2.44 20.9156C2.44 20.6603 2.54144 20.4154 2.722 20.2348C2.90256 20.0542 3.14746 19.9528 3.40281 19.9528H11.0244V18.2697H2.12396C1.98996 18.2814 1.85498 18.2651 1.72761 18.2219C1.60024 18.1786 1.48326 18.1093 1.3841 18.0184C1.28493 17.9276 1.20575 17.817 1.15158 17.6939C1.09741 17.5708 1.06944 17.4377 1.06944 17.3032C1.06944 17.1687 1.09741 17.0357 1.15158 16.9125C1.20575 16.7894 1.28493 16.6789 1.3841 16.588C1.48326 16.4971 1.60024 16.4279 1.72761 16.3846C1.85498 16.3414 1.98996 16.3251 2.12396 16.3368H11.0244V14.6537H5.79146C5.53611 14.6537 5.29121 14.5522 5.11065 14.3717C4.93009 14.1911 4.82865 13.9462 4.82865 13.6909C4.82865 13.4355 4.93009 13.1906 5.11065 13.01C5.29121 12.8295 5.53611 12.728 5.79146 12.728H11.0244V11.0376H4.20393C4.07749 11.0424 3.95134 11.0223 3.83268 10.9784C3.71402 10.9345 3.60517 10.8676 3.51235 10.7816C3.3249 10.6079 3.21411 10.3669 3.20437 10.1116C3.19954 9.98512 3.21967 9.85897 3.26359 9.7403C3.30752 9.62164 3.37439 9.5128 3.46038 9.41998C3.54638 9.32716 3.64981 9.25219 3.76477 9.19935C3.87974 9.1465 4.00399 9.11682 4.13043 9.112H11.0244V7.42891H6.61463C6.48062 7.44061 6.34565 7.42431 6.21828 7.38106C6.09091 7.3378 5.97393 7.26853 5.87476 7.17764C5.7756 7.08675 5.69642 6.97624 5.64225 6.85311C5.58808 6.72999 5.56011 6.59694 5.56011 6.46243C5.56011 6.32791 5.58808 6.19487 5.64225 6.07174C5.69642 5.94862 5.7756 5.8381 5.87476 5.74722C5.97393 5.65633 6.09091 5.58706 6.21828 5.5438C6.34565 5.50054 6.48062 5.48425 6.61463 5.49594H11.0244V3.81286H9.15762C8.67989 3.81286 7.81998 3.34248 8.5917 2.53402Z" fill="#167A16"/>
<path fill-rule="evenodd" clip-rule="evenodd" d="M11.0244 25.4945H20.7481C20.9853 25.5196 21.2247 25.4719 21.4342 25.3578C21.6438 25.2437 21.8137 25.0686 21.9213 24.8557C22.029 24.6427 22.0693 24.4021 22.037 24.1657C22.0047 23.9293 21.9012 23.7083 21.7403 23.5321C20.3343 21.6419 18.7625 19.8808 17.0438 18.2697H19.5721C20.41 18.2697 20.9759 17.3731 20.3071 16.4102C18.8932 14.4616 17.2852 12.6615 15.5077 11.0376H18.1977C18.4193 11.0519 18.6403 11.0033 18.8354 10.8972C19.0304 10.7912 19.1915 10.6321 19.2999 10.4383C19.4083 10.2446 19.4596 10.0241 19.448 9.80239C19.4363 9.58068 19.3621 9.3668 19.234 9.18549C17.0198 6.26206 14.5848 3.51258 11.9505 0.961174C11.834 0.827674 11.6921 0.718646 11.5332 0.640421C11.3742 0.562196 11.2013 0.516332 11.0244 0.505493V25.4945Z" fill="url(#paint0_linear_610_406)"/>
<defs>
<linearGradient id="paint0_linear_610_406" x1="26.1795" y1="13" x2="7.43041" y2="13" gradientUnits="userSpaceOnUse">
<stop offset="0.41" stop-color="#167A16"/>
<stop offset="1" stop-color="#19BF19"/>
</linearGradient>
</defs>
</svg>
