<svg width="160" height="40" viewBox="0 0 160 40" fill="none" xmlns="http://www.w3.org/2000/svg">
<path d="M84.5439 28.3442V19.1019H87.2484C90.3057 19.1019 91.8225 20.8657 91.8225 23.7348C91.8225 26.604 90.2822 28.3442 87.2484 28.3442H84.5439ZM96.0086 23.7348C96.0086 18.5963 92.5751 15.1981 87.2484 15.1981H80.3814V32.2716H87.2484C92.5516 32.2716 96.0086 28.8499 96.0086 23.7348V23.7348ZM61.0972 15.1981V24.946C61.0972 29.6494 64.2603 32.3775 69.0695 32.3892C73.8788 32.401 77.0301 29.6965 77.0419 24.946V15.1981C75.6417 15.0687 74.2325 15.0687 72.8323 15.1981V24.8989C72.8323 27.3565 71.5977 28.4971 69.0695 28.5089C66.5414 28.5206 65.3303 27.333 65.342 24.8989V15.1981C63.9309 15.051 62.5083 15.051 61.0972 15.1981V15.1981ZM58.7454 27.1448C58.816 23.3115 55.065 22.6295 52.0077 21.8535C51.5844 21.7476 50.7143 21.5948 50.0793 21.3714C48.7976 20.9245 48.7741 19.6193 50.0793 19.0196C50.837 18.7673 51.6327 18.648 52.431 18.6669C53.9958 18.6491 55.5553 18.851 57.064 19.2666C57.6 18.1726 57.8238 16.9519 57.7107 15.739C55.8759 15.1949 53.9682 14.9371 52.0548 14.9746C48.8682 15.0805 44.7409 16.1505 44.8114 19.9838C44.8114 22.4767 46.3048 23.5114 47.9863 24.2875C48.8211 24.6755 52.1018 25.4634 53.8068 26.1336C54.0394 26.1981 54.2426 26.341 54.3819 26.5382C54.5212 26.7354 54.588 26.9746 54.5711 27.2154C54.4535 28.4501 52.9014 28.744 51.7726 28.7911C49.7426 28.7799 47.7284 28.4343 45.8109 27.7681C45.2734 28.9236 45.0894 30.2122 45.2818 31.472C47.4605 32.1736 49.7435 32.4958 52.0313 32.4245C55.4765 32.2716 58.6514 30.9076 58.7454 27.1448ZM107.015 28.8146C104.487 28.8146 102.793 27.1448 102.793 23.7231C102.793 20.3013 104.357 18.6433 107.015 18.6433C109.672 18.6433 111.189 20.3131 111.189 23.7231C111.189 27.1331 109.543 28.8146 107.015 28.8146ZM107.015 15.1275C101.888 15.1275 98.0076 18.3847 98.0076 23.7231C98.0076 29.0615 101.888 32.3187 107.015 32.3187C112.141 32.3187 115.975 29.0733 115.975 23.7231C115.975 18.3729 112.153 15.1275 107.015 15.1275ZM150.722 19.2901C151.696 21.2663 152.567 23.2915 153.332 25.3575H147.723C148.488 23.2915 149.36 21.2663 150.334 19.2901H150.722ZM141.115 32.2246C142.562 32.4304 144.03 32.4304 145.477 32.2246C145.783 31.1546 146.112 30.108 146.441 29.0733H154.673C155.002 30.108 155.319 31.1546 155.637 32.2246C157.084 32.4306 158.552 32.4306 159.999 32.2246C158.225 26.3987 155.996 20.7214 153.332 15.2451C151.504 15.1216 149.669 15.1216 147.841 15.2451C145.177 20.7214 142.947 26.3987 141.174 32.2246H141.115ZM122.524 20.4659L126.887 32.2246C127.999 32.3656 129.125 32.3656 130.238 32.2246L134.601 20.4659H134.73C135.036 23.8759 135.165 27.9092 135.224 32.2246C136.599 32.3833 137.988 32.3833 139.363 32.2246C139.245 26.5569 138.889 20.8971 138.293 15.2451C136.453 15.1216 134.606 15.1216 132.766 15.2451L128.568 26.8979L124.37 15.2451C122.53 15.1216 120.684 15.1216 118.844 15.2451C118.24 20.9049 117.88 26.5648 117.762 32.2246C119.137 32.3952 120.527 32.3952 121.901 32.2246C121.972 27.9562 122.089 23.923 122.407 20.4659H122.524Z" fill="white"/>
<path fill-rule="evenodd" clip-rule="evenodd" d="M13.6988 3.25131L16.0506 0.829023C16.2188 0.582904 16.4428 0.379992 16.7042 0.236808C16.9657 0.0936236 17.2573 0.0142145 17.5553 0.00504603C17.8533 -0.00412242 18.1492 0.057209 18.419 0.184047C18.6888 0.310885 18.9248 0.499643 19.1078 0.734953C23.3305 4.81602 27.2341 9.21489 30.7842 13.8929C30.9891 14.183 31.1078 14.5251 31.1265 14.8799C31.1451 15.2346 31.063 15.5873 30.8895 15.8973C30.7161 16.2072 30.4584 16.4618 30.1464 16.6315C29.8343 16.8011 29.4806 16.879 29.1262 16.8561H24.7872C27.631 19.454 30.2036 22.334 32.4656 25.4516C33.5122 26.992 32.6067 28.4266 31.2898 28.4266H27.2213C29.9711 31.0042 32.4856 33.8217 34.7351 36.8458C34.9925 37.1277 35.158 37.4812 35.2098 37.8594C35.2615 38.2377 35.197 38.6227 35.0247 38.9633C34.8525 39.304 34.5807 39.5842 34.2454 39.7668C33.9101 39.9493 33.5273 40.0255 33.1476 39.9853H1.54038C1.13185 39.9853 0.740046 39.8231 0.451168 39.5342C0.16229 39.2453 0 38.8535 0 38.445C0 38.0364 0.16229 37.6446 0.451168 37.3557C0.740046 37.0669 1.13185 36.9046 1.54038 36.9046H17.5909V34.2001H5.39722C4.98869 34.2001 4.59688 34.0378 4.30801 33.7489C4.01913 33.46 3.85684 33.0682 3.85684 32.6597C3.85684 32.2512 4.01913 31.8594 4.30801 31.5705C4.59688 31.2816 4.98869 31.1193 5.39722 31.1193H17.5909V28.4266H3.35122C3.13682 28.4453 2.92088 28.4192 2.71711 28.35C2.51333 28.2808 2.32617 28.17 2.16752 28.0246C2.00887 27.8792 1.88219 27.7024 1.79552 27.5054C1.70886 27.3084 1.66411 27.0955 1.66411 26.8803C1.66411 26.6651 1.70886 26.4523 1.79552 26.2553C1.88219 26.0583 2.00887 25.8815 2.16752 25.7361C2.32617 25.5907 2.51333 25.4798 2.71711 25.4106C2.92088 25.3414 3.13682 25.3153 3.35122 25.3341H17.5909V22.6413H9.21879C8.81025 22.6413 8.41845 22.479 8.12957 22.1902C7.84069 21.9013 7.6784 21.5095 7.6784 21.1009C7.6784 20.6924 7.84069 20.3006 8.12957 20.0117C8.41845 19.7229 8.81025 19.5606 9.21879 19.5606H17.5909V16.8561H6.67892C6.47663 16.8638 6.2748 16.8316 6.08496 16.7613C5.89512 16.691 5.72098 16.5841 5.57248 16.4465C5.27258 16.1686 5.09533 15.783 5.07974 15.3745C5.07202 15.1722 5.10422 14.9704 5.17449 14.7805C5.24477 14.5907 5.35176 14.4165 5.48933 14.268C5.62691 14.1195 5.79239 13.9996 5.97633 13.9151C6.16026 13.8305 6.35904 13.783 6.56133 13.7753H17.5909V11.0826H10.5358C10.3214 11.1013 10.1054 11.0752 9.90165 11.006C9.69787 10.9368 9.51071 10.826 9.35206 10.6806C9.19341 10.5352 9.06673 10.3583 8.98006 10.1614C8.8934 9.96437 8.84864 9.75151 8.84864 9.53631C8.84864 9.3211 8.8934 9.10824 8.98006 8.91126C9.06673 8.71427 9.19341 8.53746 9.35206 8.39205C9.51071 8.24664 9.69787 8.13582 9.90165 8.06661C10.1054 7.9974 10.3214 7.97133 10.5358 7.99004H17.5909V5.29731H14.6042C13.8399 5.29731 12.4642 4.54476 13.6988 3.25131Z" fill="#167A16"/>
<path fill-rule="evenodd" clip-rule="evenodd" d="M17.5918 39.9853H33.1485C33.5281 40.0255 33.911 39.9493 34.2463 39.7668C34.5815 39.5842 34.8533 39.304 35.0256 38.9633C35.1978 38.6227 35.2624 38.2377 35.2106 37.8594C35.1589 37.4812 34.9933 37.1277 34.7359 36.8458C32.4864 33.8217 29.9719 31.0042 27.2221 28.4266H31.2671C32.6076 28.4266 33.513 26.992 32.443 25.4516C30.181 22.334 27.6083 19.454 24.7646 16.8561H29.0682C29.4227 16.879 29.7764 16.8011 30.0884 16.6315C30.4005 16.4618 30.6581 16.2072 30.8316 15.8973C31.005 15.5873 31.0872 15.2346 31.0685 14.8799C31.0499 14.5252 30.9312 14.183 30.7262 13.8929C27.1837 9.21575 23.288 4.8169 19.0734 0.734957C18.887 0.521372 18.6601 0.34694 18.4057 0.221789C18.1514 0.0966377 17.8747 0.0232613 17.5918 0.00592041V39.9853Z" fill="url(#paint0_linear_552_4409)"/>
<defs>
<linearGradient id="paint0_linear_552_4409" x1="41.8381" y1="19.9956" x2="11.8418" y2="19.9956" gradientUnits="userSpaceOnUse">
<stop offset="0.41" stop-color="#167A16"/>
<stop offset="1" stop-color="#19BF19"/>
</linearGradient>
</defs>
</svg>
